<svg xmlns="http://www.w3.org/2000/svg" viewBox="101.62 67.4 862.08 962.3" role="img" aria-labelledby="t"><title id="t">Line drawing: broken racket</title><g transform="translate(0.000000,1024.000000) scale(0.100000,-0.100000)"
fill="currentColor" stroke="none">
<path d="M5275 9498 c-16 -6 -36 -15 -42 -20 -7 -6 -65 -21 -130 -34 -78 -16
-123 -30 -138 -44 -12 -11 -28 -20 -36 -20 -15 0 -115 -63 -167 -106 -32 -26
-72 -90 -72 -115 0 -6 -13 -27 -30 -45 -16 -19 -34 -53 -41 -76 -6 -24 -19
-63 -29 -88 -42 -102 -40 -345 3 -521 13 -50 13 -57 -3 -77 -49 -60 -23 -342
39 -414 21 -26 29 -29 72 -26 47 3 47 3 64 -79 23 -110 28 -560 6 -610 -7 -18
-20 -33 -27 -33 -25 0 -148 -54 -177 -77 -16 -13 -40 -23 -53 -23 -14 0 -37
-6 -52 -14 -15 -8 -49 -17 -76 -21 -31 -5 -60 -18 -80 -35 -43 -38 -56 -40
-98 -19 -43 22 -71 23 -131 7 -36 -9 -56 -8 -113 5 -116 29 -169 21 -229 -32
-26 -23 -45 -29 -101 -34 -38 -3 -100 -17 -139 -31 -220 -79 -268 -97 -321
-125 -33 -16 -72 -39 -89 -50 -16 -12 -45 -21 -63 -21 -22 0 -41 -8 -57 -25
-13 -15 -48 -33 -80 -42 -35 -10 -69 -28 -89 -47 -24 -25 -51 -36 -126 -55
-62 -15 -104 -32 -121 -47 -14 -13 -35 -24 -48 -24 -12 0 -34 -6 -49 -14 -15
-7 -42 -17 -59 -21 -33 -7 -33 -7 -18 29 8 19 15 48 15 64 0 23 7 32 36 45 25
12 41 30 52 57 16 37 20 40 57 40 22 0 45 4 52 8 14 9 69 145 78 195 13 69
-42 157 -98 157 -55 1 -52 9 99 286 200 365 221 407 238 494 9 48 34 112 66
177 58 115 60 139 12 137 -25 -2 -32 2 -32 16 0 11 -12 22 -30 29 -16 5 -30
16 -30 24 0 23 -39 57 -66 57 -23 0 -32 -14 -89 -132 -50 -106 -75 -146 -122
-194 -45 -46 -92 -121 -207 -322 -149 -262 -149 -262 -201 -262 -63 0 -258
-26 -302 -41 -39 -13 -69 -48 -85 -101 -8 -28 -23 -47 -47 -63 -57 -36 -72
-59 -80 -122 -4 -32 -20 -80 -34 -107 -15 -27 -27 -65 -27 -85 0 -20 -13 -63
-28 -96 -31 -65 -77 -111 -243 -246 -161 -130 -211 -202 -258 -372 -42 -148
-35 -378 13 -452 19 -29 187 -128 256 -151 67 -23 192 -25 395 -6 77 7 194 17
260 23 149 12 370 44 494 69 128 27 122 29 155 -46 60 -133 94 -147 229 -90
223 95 274 109 371 104 140 -7 167 -29 181 -153 3 -33 15 -121 25 -195 10 -74
21 -193 25 -265 11 -222 45 -715 57 -830 23 -210 2 -797 -42 -1160 -10 -90
-123 -546 -173 -701 -31 -98 -33 -101 -90 -145 -32 -24 -79 -66 -104 -92 -45
-48 -45 -49 -41 -110 4 -48 12 -74 38 -115 21 -34 33 -65 33 -85 -2 -59 -21
-221 -42 -352 -42 -267 -51 -425 -51 -907 0 -451 0 -458 20 -458 20 0 20 7 20
458 0 483 5 581 47 862 14 96 29 211 33 255 9 88 21 139 38 172 16 30 15 53
-3 53 -8 0 -15 -4 -15 -10 0 -26 -20 -4 -53 59 -24 47 -33 77 -29 93 6 27 89
110 150 152 41 28 41 28 87 -12 137 -121 470 -233 910 -306 754 -127 1437
-145 1904 -50 154 31 271 69 319 104 36 26 36 26 109 -66 77 -97 123 -181 123
-225 0 -14 -14 -47 -32 -75 -31 -49 -31 -49 -54 1 -13 28 -23 58 -23 68 -1 9
-8 17 -16 17 -26 0 -17 -57 26 -163 40 -98 42 -109 52 -265 8 -126 8 -182 -2
-245 -56 -364 -69 -877 -23 -877 15 0 17 24 17 253 1 247 12 413 41 571 22
121 14 364 -16 501 -8 37 -6 46 32 108 37 61 40 72 36 120 -6 71 -25 106 -129
244 -84 112 -89 120 -89 168 0 27 -12 122 -25 210 -34 213 -40 341 -26 575 16
269 78 936 96 1045 27 153 298 1210 315 1229 5 4 16 -7 26 -25 36 -73 138
-211 215 -293 249 -266 571 -400 919 -383 508 25 913 326 1070 795 28 85 30
87 70 99 76 22 120 55 147 108 14 27 45 71 70 98 85 91 133 240 133 413 0 154
-43 298 -130 439 -128 208 -131 214 -124 282 12 118 9 157 -15 196 -15 24 -23
55 -24 91 -2 47 -7 60 -35 89 -24 25 -32 42 -32 70 0 73 -57 127 -135 127 -17
0 -32 12 -52 43 -22 33 -50 54 -128 95 -55 30 -111 60 -125 68 -47 26 -120 18
-180 -21 -55 -34 -55 -34 -135 44 -44 43 -161 150 -260 238 -204 181 -306 286
-417 423 -97 121 -243 344 -307 468 -52 102 -94 146 -134 140 -17 -2 -22 -10
-22 -33 0 -35 -19 -50 -58 -46 -31 3 -42 -14 -29 -50 14 -39 4 -57 -31 -61
-47 -4 -58 -44 -29 -103 13 -27 26 -83 33 -141 22 -184 -17 -388 -136 -709
-113 -307 -186 -507 -208 -573 -16 -47 -25 -62 -37 -58 -8 2 -53 18 -100 35
-90 32 -208 41 -292 22 -35 -8 -37 -7 -47 20 -10 29 -56 49 -114 49 -41 0
-233 75 -268 104 -16 14 -47 30 -67 35 -21 6 -59 24 -86 41 -49 31 -49 31 -41
196 11 263 19 325 56 434 34 100 34 100 65 94 88 -16 109 42 123 336 6 152 9
169 34 217 15 29 27 58 27 65 0 6 9 31 21 54 31 64 37 203 12 269 -18 48 -18
51 -1 68 24 23 23 47 -3 47 -17 0 -19 4 -12 23 4 12 8 47 8 77 0 48 -2 55 -20
55 -13 0 -26 12 -37 37 -17 39 -159 188 -178 188 -5 0 -30 20 -53 45 -24 25
-53 45 -64 45 -11 0 -50 16 -87 35 -45 24 -81 35 -109 35 -23 0 -60 7 -82 15
-47 17 -196 19 -240 3z m195 -43 c25 -3 69 -7 99 -10 62 -6 142 -43 186 -86
33 -31 55 -37 55 -16 1 18 50 -41 50 -60 0 -11 6 -14 21 -10 27 7 90 -49 114
-103 11 -25 25 -40 36 -40 17 0 39 -50 39 -87 0 -7 9 -13 20 -13 26 0 26 -25
-1 -69 -23 -37 -19 -72 12 -126 21 -36 41 -125 28 -125 -5 0 -9 -25 -9 -55 0
-38 -4 -57 -14 -61 -7 -3 -16 -26 -20 -52 -3 -26 -12 -57 -19 -67 -7 -11 -21
-41 -31 -67 -10 -27 -21 -48 -25 -48 -5 0 -16 -21 -25 -47 -30 -82 -35 -91
-29 -53 6 40 -31 270 -53 332 -19 56 -19 138 1 138 23 0 18 27 -20 107 -21 43
-41 73 -50 73 -8 0 -15 3 -15 8 0 4 -23 18 -51 32 -28 13 -53 30 -56 37 -3 7
-11 13 -19 13 -8 0 -14 4 -14 10 0 5 -12 13 -27 16 -14 4 -45 17 -67 30 -28
17 -57 24 -93 24 -63 0 -97 -25 -143 -105 -17 -30 -36 -57 -42 -61 -10 -7 37
84 53 100 29 31 -7 49 -37 19 -22 -23 -105 -25 -198 -5 -61 13 -70 13 -78 -1
-4 -9 -22 -18 -38 -22 -17 -4 -30 -11 -30 -16 0 -5 -11 -9 -25 -9 -28 0 -34
-24 -9 -34 14 -5 14 -8 0 -21 -19 -19 -36 -19 -36 0 0 20 -81 20 -120 0 -36
-19 -42 -51 -7 -40 60 19 108 28 114 22 4 -4 -8 -22 -25 -40 -33 -34 -41 -57
-19 -57 6 -1 0 -7 -14 -15 -46 -25 -60 -57 -55 -127 3 -39 -2 -103 -14 -168
-11 -58 -25 -139 -33 -180 -13 -75 -13 -75 -31 -20 -10 30 -22 59 -27 65 -5 5
-9 17 -9 26 0 9 -9 19 -20 22 -16 4 -20 14 -20 45 0 23 -5 44 -11 48 -8 4 -10
35 -7 90 4 69 2 84 -10 84 -12 0 -13 10 -8 53 4 28 9 75 11 102 3 58 14 87 49
134 27 36 33 61 16 61 -19 0 -10 21 30 64 22 24 40 51 40 60 0 51 63 115 137
137 24 8 44 21 46 31 3 9 18 20 33 24 16 3 34 13 41 21 12 15 122 44 215 57
26 4 54 13 61 20 26 27 39 27 197 11z m87 -432 c29 -15 53 -33 53 -40 0 -7 9
-13 20 -13 20 0 31 -6 71 -42 10 -10 26 -18 34 -18 26 0 65 -31 65 -52 0 -15
5 -19 20 -15 14 4 20 0 20 -11 1 -50 20 -240 26 -257 6 -17 3 -16 -22 6 -57
52 -86 60 -216 60 -70 1 -123 -4 -127 -9 -3 -6 -19 -14 -34 -17 -22 -6 -27
-13 -27 -39 0 -31 0 -31 -70 -31 -62 0 -69 2 -64 18 22 70 -78 104 -244 82
-115 -16 -139 -24 -173 -61 -35 -38 -49 -67 -49 -98 0 -33 10 -32 79 2 52 25
65 27 169 26 99 -1 117 -4 142 -23 33 -24 50 -27 50 -8 0 7 20 18 44 26 54 16
117 0 132 -32 13 -30 49 -37 41 -8 -4 17 2 21 50 31 107 23 202 18 260 -13 67
-34 73 -34 74 6 2 33 23 -69 35 -169 9 -72 -5 -221 -22 -238 -8 -8 -14 -22
-14 -30 0 -9 -5 -16 -11 -16 -7 0 -9 -10 -7 -25 4 -19 1 -25 -13 -25 -12 0
-19 -7 -19 -20 0 -11 -4 -20 -9 -20 -5 0 -12 -11 -15 -25 -4 -14 -11 -25 -16
-25 -6 0 -10 -9 -10 -20 0 -11 -4 -20 -10 -20 -5 0 -12 -11 -16 -25 -3 -14
-10 -25 -15 -25 -5 0 -12 -18 -15 -40 -6 -36 -9 -39 -30 -34 -19 5 -24 1 -30
-20 -3 -14 -10 -26 -15 -26 -5 0 -9 -9 -9 -20 0 -11 -4 -20 -9 -20 -5 0 -12
-11 -15 -25 -4 -14 -13 -25 -21 -25 -9 0 -15 -10 -15 -25 0 -16 -6 -25 -15
-25 -8 0 -15 -4 -15 -9 0 -5 -9 -13 -21 -16 -15 -5 -19 -13 -16 -27 4 -14 2
-18 -10 -14 -8 3 -16 6 -18 6 -2 0 -1 9 2 20 3 13 0 20 -8 20 -8 0 -24 3 -36
6 -19 5 -23 2 -23 -15 0 -11 5 -21 11 -21 13 0 49 -38 49 -52 0 -4 -7 -8 -15
-8 -8 0 -15 7 -15 15 0 8 -7 15 -15 15 -8 0 -15 -7 -15 -15 0 -8 -7 -15 -15
-15 -8 0 -15 5 -15 10 0 6 5 10 10 10 6 0 10 9 10 20 0 11 -7 20 -15 20 -8 0
-15 -7 -15 -16 0 -22 -23 -43 -62 -56 -18 -6 -36 -16 -40 -22 -4 -6 -8 9 -8
33 0 41 -1 43 -25 37 -27 -7 -35 8 -10 18 24 9 19 39 -5 33 -11 -3 -20 -1 -20
5 0 5 -8 8 -17 7 -51 -5 -75 2 -80 22 -4 14 -12 19 -25 16 -21 -6 -45 27 -28
38 5 3 10 13 10 22 0 18 -49 10 -62 -10 -5 -8 -8 -7 -8 4 0 9 7 19 15 23 8 3
15 12 15 21 0 8 -7 15 -15 15 -9 0 -15 9 -15 24 0 13 -7 26 -15 30 -8 3 -15
14 -15 25 0 10 -7 21 -15 25 -8 3 -15 13 -15 21 0 9 -6 23 -14 31 -8 7 -12 22
-10 31 4 13 -4 21 -25 30 -24 9 -31 17 -31 37 0 15 -6 29 -14 32 -8 3 -17 21
-20 40 -4 19 -11 34 -16 34 -6 0 -10 7 -10 15 0 8 -6 15 -14 15 -9 0 -16 19
-20 63 -7 62 4 145 53 413 10 60 22 130 26 157 3 26 10 47 15 47 33 0 110 104
110 150 0 11 6 20 14 20 8 0 29 12 47 27 31 26 38 28 136 28 79 0 104 -3 108
-14 6 -16 -32 -61 -52 -61 -9 0 -13 -8 -11 -22 2 -18 10 -24 40 -26 55 -5 92
20 133 89 33 54 83 99 109 99 5 0 33 -12 63 -27z m-349 -426 c6 -5 12 -15 12
-23 0 -8 9 -14 21 -14 24 0 47 -20 42 -37 -3 -9 -11 -9 -28 3 -51 33 -253 36
-340 5 -29 -11 -29 -10 9 24 22 20 53 39 68 43 38 10 200 9 216 -1z m573 -19
c44 -25 63 -55 27 -43 -77 25 -291 12 -314 -20 -13 -18 -34 -20 -34 -4 0 16
40 49 59 49 9 0 22 9 28 19 16 25 43 30 127 25 45 -3 82 -12 107 -26z m1598
-76 c-11 -2 -25 -12 -32 -23 -13 -20 -37 -26 -37 -8 0 13 20 33 43 42 9 3 17
14 17 24 1 14 4 12 15 -7 12 -23 12 -25 -6 -28z m117 -133 c196 -332 367 -532
714 -839 85 -75 188 -168 227 -207 73 -70 73 -70 50 -91 -23 -22 -23 -22 -68
24 -72 75 -189 165 -256 196 -157 74 -443 56 -691 -42 -314 -125 -473 -340
-578 -782 -11 -45 -24 -78 -31 -78 -7 0 -16 -12 -19 -27 -8 -33 -20 -43 -52
-43 -24 0 -24 0 3 46 19 32 29 68 34 117 6 56 37 150 135 417 280 755 281 757
281 1030 0 181 -2 198 -22 244 -32 67 -31 70 26 63 34 -4 51 -2 54 6 9 28 32
-199 31 -313 -1 -183 -67 -448 -180 -722 -65 -158 -59 -171 38 -84 160 145
543 276 771 263 61 -3 87 -1 87 7 0 6 -53 65 -118 131 -256 261 -404 457 -530
699 -36 68 -35 71 10 71 31 0 36 -5 84 -86z m-27 -193 c79 -129 197 -276 364
-454 54 -57 97 -109 97 -117 0 -9 -22 -15 -72 -20 -166 -16 -344 -67 -504
-146 -148 -72 -147 -73 -94 89 113 344 139 568 95 822 -6 30 -1 25 33 -35 21
-38 58 -101 81 -139z m-2853 63 c-14 -44 -14 -44 -15 -9 -1 51 10 87 20 67 5
-8 3 -33 -5 -58z m-1760 -60 c21 -42 71 -89 93 -89 17 0 13 -11 -23 -82 -24
-46 -45 -93 -49 -106 -5 -23 -5 -23 -64 7 -113 59 -110 48 -46 184 31 64 60
117 64 117 5 0 16 -14 25 -31z m1829 1 c-8 -16 -15 -40 -15 -55 0 -14 -2 -25
-4 -25 -2 0 -11 -3 -20 -6 -12 -5 -16 0 -16 22 0 48 11 74 31 74 10 0 21 5 24
10 14 23 14 8 0 -20z m66 -137 c11 -21 11 -27 2 -30 -7 -3 -13 -15 -13 -28 0
-37 -55 -49 -82 -17 -22 25 -29 62 -12 62 8 0 14 7 14 15 0 8 7 15 15 15 8 0
15 -4 15 -10 0 -16 30 -12 36 5 4 9 1 28 -5 44 -8 17 -9 39 -4 57 6 26 8 22
14 -29 4 -32 13 -70 20 -84z m1247 60 c3 -34 0 -42 -11 -37 -21 8 -28 86 -7
82 10 -2 16 -17 18 -45z m0 -97 c5 -24 -16 -73 -34 -80 -24 -9 -44 5 -44 33 0
30 7 41 35 58 25 15 39 11 43 -11z m-3272 -97 c24 -17 66 -39 93 -50 42 -18
47 -24 43 -45 -6 -32 -22 -30 -92 7 -90 48 -128 83 -111 103 17 21 15 21 67
-15z m-67 -68 c20 -16 68 -44 106 -62 39 -19 72 -35 74 -36 1 -1 -16 -38 -39
-81 l-43 -80 -91 45 c-114 57 -150 87 -134 117 22 42 79 126 84 126 4 0 23
-13 43 -29z m3149 -72 c17 -6 -30 -96 -75 -145 -18 -20 -33 -40 -33 -44 0 -3
-11 -17 -24 -29 -23 -22 -23 -22 -19 3 3 15 11 26 18 26 6 0 18 18 25 40 10
31 18 40 36 40 15 0 24 8 28 25 4 14 11 25 16 25 13 0 13 37 -1 42 -5 2 -7 11
-3 22 4 10 10 13 13 8 3 -5 12 -11 19 -13z m-918 -123 c0 -9 7 -16 15 -16 8 0
15 -7 15 -15 0 -8 7 -15 15 -15 8 0 15 5 15 10 0 6 7 10 15 10 8 0 15 -7 15
-15 0 -8 -4 -15 -10 -15 -5 0 -10 -9 -10 -20 0 -13 7 -20 20 -20 19 0 27 -20
13 -33 -10 -11 -43 24 -43 45 0 10 -7 18 -15 18 -9 0 -29 21 -45 47 -32 51
-39 74 -15 49 8 -8 15 -22 15 -30z m-2365 14 c10 -11 60 -40 111 -65 52 -26
94 -49 94 -53 0 -4 -19 -41 -43 -83 l-42 -76 -90 43 c-49 23 -103 56 -118 72
-29 30 -29 30 15 106 24 42 46 76 49 76 3 0 14 -9 24 -20z m2421 -176 c209
-261 362 -322 529 -212 66 44 97 76 216 225 l102 128 -6 -80 c-24 -313 -18
-419 22 -432 61 -20 71 -28 71 -58 -1 -120 -175 -270 -370 -320 -88 -23 -292
-16 -404 14 -174 46 -309 139 -365 253 -41 81 -40 101 3 118 27 10 40 25 58
64 22 48 23 62 22 259 -1 208 -1 208 24 170 14 -21 58 -79 98 -129z m123 37
c12 -8 9 -11 -12 -16 -16 -4 -27 -14 -27 -24 0 -18 55 -71 74 -71 7 0 17 -5
22 -10 6 -6 56 -22 110 -35 116 -29 175 -24 279 26 l60 29 -58 -55 c-155 -147
-267 -138 -435 34 -45 47 -78 87 -74 90 5 3 11 14 15 24 7 19 24 22 46 8z
m556 -25 c-16 -13 -32 -22 -35 -19 -3 3 1 8 8 10 6 3 12 11 12 19 0 8 10 14
23 14 21 0 20 -1 -8 -24z m-3089 -106 c46 -21 84 -42 84 -45 0 -11 -114 -225
-120 -225 -3 0 -18 22 -34 49 -32 55 -123 155 -146 163 -12 5 -7 20 25 81 39
76 39 76 73 46 19 -17 72 -48 118 -69z m5298 62 c2 -4 7 -24 11 -44 7 -38 10
-35 -54 -53 -16 -5 -22 1 -30 32 -16 56 -14 61 22 66 17 2 35 5 39 5 4 1 9 -1
12 -6z m130 -8 c9 -23 7 -54 -3 -54 -5 0 -22 -3 -38 -6 -28 -6 -31 -4 -40 35
-11 41 -11 41 32 41 30 0 45 -5 49 -16z m104 0 c30 -8 29 -34 -2 -34 -13 0
-31 -3 -39 -6 -10 -3 -16 3 -19 20 -6 28 10 33 60 20z m-344 -66 c6 -35 5 -38
-21 -44 -15 -3 -33 -7 -40 -9 -11 -4 -37 84 -28 94 2 2 19 6 37 10 37 8 42 3
52 -51z m-119 -24 c6 -41 6 -41 -33 -51 -39 -10 -40 -10 -46 20 -11 54 -7 64
27 74 39 12 43 9 52 -43z m608 18 c15 -16 60 -182 52 -190 -2 -2 -19 -7 -38
-12 -34 -7 -36 -6 -41 24 -4 17 -15 68 -25 114 -19 82 -19 82 9 82 15 0 34 -8
43 -18z m-84 -105 c14 -59 22 -109 19 -112 -3 -3 -21 -8 -41 -12 -35 -5 -35
-5 -56 83 -31 135 -31 137 4 145 47 10 49 8 74 -104z m-640 37 c1 -17 -7 -24
-39 -32 -29 -7 -40 -7 -40 2 0 6 -3 21 -6 33 -5 17 1 25 33 41 38 20 38 20 45
-1 3 -12 6 -32 7 -43z m515 -46 c10 -51 21 -103 23 -114 4 -18 -1 -23 -32 -28
-20 -4 -39 -5 -42 -3 -2 3 -13 45 -24 94 -10 48 -21 98 -24 110 -5 23 6 30 56
32 24 1 26 -3 43 -91z m-140 55 c10 -32 46 -216 43 -219 -1 -2 -21 -6 -43 -9
-40 -7 -40 -7 -62 102 -27 133 -28 121 11 132 45 13 45 13 51 -6z m-5589 -12
c56 -25 138 -118 181 -205 45 -93 42 -120 -23 -173 -45 -37 -45 -37 -69 -8
-13 17 -24 38 -24 47 0 9 -27 47 -59 85 -59 67 -59 67 -120 68 -46 1 -61 -3
-61 -13 0 -17 -37 4 -81 44 -28 27 -49 31 -49 10 0 -31 53 -74 161 -131 93
-49 131 -76 205 -147 103 -100 130 -141 120 -183 -7 -29 -57 -85 -75 -85 -6 0
-43 30 -83 66 -40 36 -122 95 -183 131 -60 36 -133 83 -162 104 -55 41 -73 47
-73 25 0 -23 81 -88 194 -156 125 -75 256 -183 271 -224 12 -35 -18 -97 -55
-109 -22 -8 -42 2 -147 69 -149 96 -306 184 -328 184 -42 0 -3 -39 95 -94 158
-88 330 -204 330 -222 0 -24 -55 -74 -82 -74 -13 0 -95 29 -183 65 -164 67
-255 85 -255 51 0 -8 7 -16 15 -20 13 -5 12 -12 -7 -51 -25 -52 -23 -51 -65
-25 -41 25 -73 88 -80 156 -8 77 -33 75 -33 -3 0 -96 66 -203 124 -203 12 0
16 -10 16 -34 0 -42 43 -83 136 -129 63 -31 63 -31 57 -76 -8 -69 -40 -159
-79 -224 -37 -63 -42 -87 -20 -87 39 0 136 212 136 299 0 40 1 41 33 41 50 0
73 23 116 115 40 85 40 85 83 85 64 0 105 29 120 85 10 37 16 45 36 45 52 0
114 -104 237 -399 42 -102 92 -215 111 -253 34 -67 34 -67 -4 -78 -141 -40
-535 -94 -877 -121 -296 -23 -304 -23 -375 1 -66 22 -217 108 -243 138 -43 50
-59 213 -33 341 40 197 93 285 247 410 179 145 237 204 269 274 17 34 30 78
30 97 0 19 14 62 30 95 18 37 30 76 30 100 0 50 20 79 70 105 31 16 41 29 55
69 20 62 61 98 118 106 23 3 85 12 137 19 127 18 120 18 165 -3z m6049 -48
c-24 -18 -34 -16 -34 5 0 9 -3 28 -7 42 -6 25 -6 25 26 -5 29 -27 31 -31 15
-42z m463 29 c16 -11 65 -38 110 -61 68 -34 86 -48 102 -80 22 -41 37 -51 80
-51 16 0 43 -10 62 -23 33 -22 34 -26 33 -85 -1 -53 2 -62 17 -62 32 0 62 -50
55 -93 -5 -31 -1 -49 22 -90 29 -54 30 -62 16 -199 -7 -63 1 -81 128 -289 85
-140 119 -241 125 -379 8 -176 -37 -327 -129 -426 -23 -25 -54 -67 -68 -93
-19 -36 -37 -52 -79 -73 -30 -16 -56 -27 -57 -25 -2 1 3 39 11 82 41 227 23
532 -45 769 -16 56 -16 66 -4 66 45 0 144 152 144 221 0 36 -32 17 -45 -26
-20 -71 -88 -155 -124 -155 -5 0 -12 12 -16 27 -3 15 -22 60 -40 100 -34 73
-34 73 20 67 47 -6 56 -4 62 12 4 10 2 19 -5 22 -8 2 -8 8 0 22 18 29 3 35
-44 17 -24 -9 -86 -26 -138 -39 -59 -14 -130 -40 -188 -70 -103 -53 -102 -53
-102 -37 0 6 -9 22 -20 37 -20 25 -20 25 2 49 56 60 209 164 298 203 132 58
170 81 170 102 0 21 -18 23 -45 5 -11 -8 -73 -38 -139 -67 -112 -51 -290 -172
-350 -239 -11 -11 -27 -21 -37 -21 -18 0 -79 63 -79 82 0 6 55 67 123 135 122
124 122 124 275 199 119 59 152 79 152 94 0 27 -13 25 -74 -9 -28 -16 -94 -48
-146 -71 -85 -37 -107 -53 -205 -145 -109 -104 -109 -104 -145 -63 -19 23 -39
47 -43 55 -13 22 32 80 163 206 97 95 131 121 198 153 82 40 89 47 72 74 -8
13 -15 12 -50 -7 -45 -24 -70 -21 -70 8 0 28 -23 23 -48 -11 -12 -16 -40 -40
-61 -52 -31 -18 -42 -32 -55 -74 -9 -28 -24 -59 -35 -68 -18 -16 -19 -15 -25
23 -4 27 -16 48 -41 69 -34 31 -34 31 -20 89 13 51 23 66 80 120 115 108 179
127 252 75z m-1417 -13 c0 -11 -14 -20 -40 -27 -52 -13 -56 12 -7 44 33 22 47
17 47 -17z m380 -26 c7 -32 18 -84 25 -116 15 -64 14 -66 -40 -70 -29 -2 -29
-2 -51 108 -24 116 -23 121 16 128 14 2 28 5 32 6 4 0 12 -25 18 -56z m-125 5
c26 -112 43 -204 37 -209 -4 -4 -21 -10 -39 -14 -28 -6 -33 -4 -38 17 -8 35
-45 212 -45 214 0 2 32 8 67 13 7 0 15 -9 18 -21z m-103 -103 c10 -49 20 -100
23 -112 4 -18 -1 -24 -31 -33 -20 -7 -39 -8 -44 -4 -4 5 -15 50 -25 99 -9 50
-19 100 -22 112 -4 16 1 22 19 26 58 11 61 8 80 -88z m890 49 c19 -20 25 -31
19 -43 -5 -9 -14 -43 -21 -77 -20 -103 -35 -107 -76 -20 -55 118 -1 215 78
140z m-1027 -6 c3 -13 14 -63 24 -113 20 -97 19 -101 -33 -107 -29 -3 -29 -3
-52 102 -12 58 -23 108 -23 112 -1 7 45 26 66 27 7 1 15 -9 18 -21z m-120 -30
c3 -13 12 -57 20 -98 9 -41 18 -83 21 -92 4 -13 -4 -20 -37 -28 -22 -6 -43
-10 -44 -8 -6 5 -45 190 -45 210 0 11 12 21 33 27 46 13 46 13 52 -11z m1005
-38 c0 -11 9 -42 19 -70 21 -54 21 -55 -25 -64 -30 -7 -30 -7 -43 56 -16 82
-16 82 11 90 36 10 38 9 38 -12z m-3600 -43 c0 -93 123 -241 252 -305 125 -61
242 -85 418 -86 124 -1 167 3 214 17 208 64 366 215 366 349 0 33 1 33 42 12
28 -14 30 -19 25 -56 -24 -179 -245 -355 -511 -405 -167 -32 -395 3 -575 89
-154 73 -284 228 -299 354 -4 39 -2 45 19 53 41 17 49 13 49 -22z m2494 -65
c19 -92 18 -97 -21 -105 -16 -3 -35 -8 -44 -12 -13 -5 -18 5 -27 47 -10 51 -9
55 25 111 20 32 39 55 43 50 3 -4 14 -45 24 -91z m1015 32 c14 -68 9 -83 -26
-84 -6 0 -18 -3 -26 -6 -12 -4 -18 8 -27 53 -6 32 -14 66 -16 75 -4 12 3 18
23 21 60 9 59 10 72 -59z m-123 -24 c18 -77 18 -78 -23 -89 -45 -13 -42 -16
-59 61 -17 81 -18 76 9 81 52 11 60 4 73 -53z m-5826 15 c25 -29 25 -29 0 -13
-14 8 -27 24 -29 34 -2 11 -2 17 0 14 2 -3 15 -18 29 -35z m2335 -16 c13 -78
70 -172 150 -247 121 -115 291 -186 510 -213 353 -43 715 138 790 394 9 31 20
57 25 57 5 0 44 -14 87 -31 43 -17 103 -33 133 -36 64 -6 100 -25 100 -53 0
-28 27 -32 114 -15 95 18 163 9 273 -37 79 -33 78 -33 62 -75 -6 -15 -15 -56
-19 -90 -5 -40 -26 -102 -59 -175 -28 -62 -51 -119 -51 -125 0 -27 40 -11 74
28 31 37 36 40 41 23 4 -10 11 -27 16 -37 15 -29 -10 -87 -37 -87 -15 0 -29
-12 -45 -37 -21 -36 -22 -48 -23 -248 -1 -321 41 -547 156 -826 39 -95 39 -95
4 -220 -73 -261 -268 -1039 -286 -1145 -17 -97 -56 -492 -91 -914 -22 -268
-17 -561 14 -742 35 -206 36 -261 1 -293 -127 -118 -807 -203 -1305 -164 -963
75 -1568 215 -1798 417 -45 38 -45 39 -31 73 20 50 21 51 75 17 231 -145 677
-266 1155 -312 413 -41 1173 -55 1415 -28 256 30 485 76 485 99 0 18 7 18
-237 -25 -263 -47 -412 -56 -868 -49 -952 14 -1534 119 -1927 348 l-66 39 35
132 c120 449 128 505 164 1073 21 340 21 356 5 560 -29 364 -45 592 -61 855
-8 140 -24 318 -36 395 -32 216 -31 232 33 455 70 243 86 317 142 666 29 181
56 315 76 379 20 62 30 108 26 126 -4 23 -1 32 19 45 26 17 46 16 168 -6 55
-11 78 -11 121 0 59 14 86 9 86 -14 0 -16 48 -46 72 -46 7 0 36 12 63 25 41
20 59 24 98 19 38 -5 47 -4 47 8 0 18 -80 44 -107 34 -16 -5 -15 -4 1 9 26 20
76 20 76 0 0 -8 7 -15 15 -15 27 0 65 23 65 41 0 17 13 27 37 28 6 1 14 -17
18 -40z m3379 -71 c6 -35 5 -38 -21 -44 -15 -3 -35 -8 -44 -10 -13 -3 -19 8
-28 52 -17 87 -16 91 27 101 36 9 37 9 48 -26 6 -20 14 -53 18 -73z m-124 -51
c0 -16 -31 -29 -65 -28 -8 0 -33 91 -35 128 0 6 17 15 38 20 37 9 37 9 49 -47
7 -30 12 -63 13 -73z m-5244 94 c43 -26 58 -68 44 -120 -13 -49 -18 -50 -55
-11 -16 17 -35 30 -42 30 -20 0 -15 -35 8 -56 36 -31 54 -84 36 -102 -25 -24
-59 -7 -84 42 -21 44 -21 44 3 97 14 28 29 72 35 95 13 50 13 50 55 25z m5122
-93 c9 -46 9 -46 -30 -56 -44 -11 -41 -15 -58 71 -13 67 -15 62 30 74 39 11
41 9 58 -89z m782 13 c0 -47 -15 -56 -39 -25 -22 27 -26 50 -15 79 10 24 54
-20 54 -54z m-897 -58 c5 -28 3 -32 -21 -38 -15 -3 -34 -8 -43 -11 -13 -3 -18
10 -28 66 -15 81 -17 75 29 87 38 10 41 5 63 -104z m756 33 c14 -64 11 -71
-35 -80 -31 -7 -31 -7 -46 61 -17 79 -19 73 24 83 41 9 42 8 57 -64z m-889
-16 c15 -79 15 -79 -32 -86 -35 -6 -35 -6 -46 52 -7 31 -12 63 -12 70 0 11 37
28 71 33 3 1 12 -31 19 -69z m-3724 -37 c-33 -102 -38 -126 -81 -403 -50 -323
-98 -538 -190 -847 -3 -9 -14 -8 -42 4 -58 24 -235 30 -293 8 -25 -9 -74 -27
-110 -39 -36 -13 -95 -37 -131 -54 -67 -30 -67 -30 -73 11 -4 22 -44 120 -90
216 -47 97 -112 243 -146 325 -62 151 -112 255 -151 313 -20 31 -20 33 -2 39
10 3 33 12 51 20 18 8 43 14 57 14 13 0 37 11 54 26 37 31 74 27 168 -18 123
-57 251 -181 374 -360 56 -81 89 -109 89 -73 0 18 -99 164 -170 250 -72 87
-187 180 -275 221 -70 33 -70 33 -26 40 29 5 57 19 88 45 29 26 58 41 85 45
23 4 55 19 73 35 40 36 37 36 93 -3 111 -76 232 -213 307 -350 52 -96 92 -91
44 5 -73 143 -200 295 -309 369 -25 16 -25 16 -5 32 40 31 135 77 231 111 54
20 130 47 167 61 38 14 102 29 143 34 42 4 78 11 82 15 16 16 12 -21 -12 -92z
m4492 32 c16 -71 13 -80 -29 -89 -40 -8 -37 -10 -54 61 -19 76 -20 71 18 82
47 13 51 10 65 -54z m-886 -29 c15 -73 15 -73 -29 -83 -42 -10 -43 -9 -49 16
-3 14 -10 46 -15 70 -5 24 -9 45 -7 46 3 3 67 22 79 24 3 1 13 -32 21 -73z
m754 37 c3 -16 10 -45 16 -67 11 -44 6 -51 -39 -61 -29 -6 -33 -4 -39 22 -3
15 -10 45 -16 67 -10 42 -5 52 32 59 14 2 28 5 32 6 4 0 10 -11 14 -26z m337
-35 c8 -5 4 -8 -10 -8 -13 0 -23 6 -23 13 0 6 -3 23 -6 37 -5 23 -4 22 11 -5
9 -16 22 -33 28 -37z m-1218 -29 c13 -61 13 -61 -17 -55 -17 3 -41 6 -54 6
-20 0 -25 6 -30 38 -3 20 -6 41 -7 47 -2 8 83 35 92 29 2 -2 9 -31 16 -65z
m761 34 c3 -16 10 -44 15 -63 5 -19 9 -38 9 -42 0 -8 -80 -32 -86 -26 -2 2
-10 34 -18 71 -14 67 -14 67 18 76 49 14 55 13 62 -16z m-905 -41 c7 -36 3
-37 -50 -18 -35 12 -35 12 -12 35 30 30 54 23 62 -17z m788 -29 c12 -68 8 -82
-26 -83 -6 0 -18 -2 -26 -6 -10 -4 -17 10 -27 55 -17 82 -12 91 56 100 6 0 16
-29 23 -66z m-120 -28 c15 -74 15 -74 -32 -85 -35 -7 -35 -7 -47 57 -14 74 -8
85 56 92 6 0 16 -28 23 -64z m-121 -23 c16 -80 17 -79 -24 -87 -43 -8 -50 0
-59 65 -9 64 -9 64 17 72 49 13 54 10 66 -50z m765 16 c6 -42 -19 -104 -43
-111 -16 -4 -21 4 -31 51 -6 31 -13 62 -16 68 -4 11 64 35 78 28 4 -2 9 -18
12 -36z m-1344 -2 c25 -7 47 -18 48 -23 4 -10 -117 -46 -125 -38 -6 6 19 75
26 75 4 0 27 -6 51 -14z m458 -40 c9 -55 9 -55 -26 -39 -20 8 -42 17 -48 20
-23 9 -16 61 10 66 52 10 53 9 64 -47z m772 -19 c15 -68 17 -64 -35 -73 -41
-6 -41 -6 -48 37 -4 24 -9 54 -12 65 -5 18 0 23 33 31 47 12 47 12 62 -60z
m-125 -27 c8 -35 14 -65 13 -67 -2 -1 -21 -5 -43 -9 -40 -6 -40 -6 -52 57 -6
35 -10 65 -7 67 4 4 68 20 72 17 1 0 9 -30 17 -65z m-885 -67 c1 -26 -2 -29
-55 -37 -41 -7 -41 -7 -54 54 -15 69 -14 71 43 85 42 10 42 10 54 -35 6 -25
12 -55 12 -67z m121 53 c0 -8 3 -21 6 -29 4 -11 -5 -19 -33 -26 -52 -15 -50
-16 -57 32 -4 23 -10 52 -13 65 -6 24 -6 24 46 -2 28 -15 51 -33 51 -40z m643
-8 c16 -73 14 -77 -38 -81 -39 -2 -39 -2 -51 58 -7 33 -12 61 -11 62 2 2 70
21 79 22 4 1 13 -27 21 -61z m-913 -29 c8 -35 9 -63 4 -68 -8 -7 -121 -41
-136 -41 -7 0 -32 129 -27 134 5 4 119 34 135 35 6 1 17 -26 24 -60z m776 34
c3 -16 10 -44 15 -63 10 -41 5 -47 -40 -52 -33 -3 -35 -1 -43 37 -4 22 -10 50
-13 62 -4 18 1 24 27 32 48 13 47 14 54 -16z m-110 -68 c14 -68 14 -70 -19
-61 -38 9 -65 38 -71 78 -6 34 -5 37 21 41 52 8 57 4 69 -58z m688 -19 c-8
-33 -29 -31 -57 6 -18 24 -19 31 -8 54 12 27 12 27 42 -3 24 -24 29 -35 23
-57z m-816 37 c5 -18 -10 -16 -34 2 -18 15 -18 15 5 13 14 -2 26 -9 29 -15z
m712 -23 c0 -20 9 -40 26 -57 28 -28 28 -30 -5 -35 -26 -3 -30 4 -45 85 -6 30
-4 37 9 37 10 0 15 -10 15 -30z m-824 -70 c4 -31 3 -50 -3 -50 -6 0 -24 -3
-40 -6 -30 -6 -30 -5 -42 56 -14 70 -14 70 31 79 38 8 43 1 54 -79z m764 38
c6 -24 13 -51 16 -60 4 -13 -5 -19 -38 -25 -43 -9 -43 -9 -55 37 -18 64 -16
78 10 83 52 10 56 8 67 -35z m-637 -37 c4 -15 -2 -20 -25 -25 -51 -10 -55 -8
-65 43 -10 50 -10 50 37 26 26 -13 50 -33 53 -44z m-253 -6 c7 -36 11 -68 9
-70 -2 -2 -22 -5 -43 -7 -40 -3 -40 -3 -51 60 -12 62 -12 62 19 71 51 15 53
13 66 -54z m769 5 c15 -69 16 -66 -28 -78 -40 -10 -40 -10 -50 40 -17 79 -15
84 46 87 18 1 23 -7 32 -49z m-892 -36 c6 -32 9 -62 5 -65 -17 -15 -93 -27
-97 -16 -7 24 -25 120 -23 122 7 6 84 23 93 21 6 -2 15 -29 22 -62z m783 -55
c0 -4 -12 -10 -27 -13 -16 -4 -35 -9 -45 -12 -13 -4 -18 6 -27 46 -16 76 -15
78 32 87 42 9 42 9 54 -47 7 -30 12 -58 13 -61z m-141 29 c1 -16 -3 -16 -44 4
-52 25 -56 35 -17 44 15 3 32 7 37 8 10 3 22 -25 24 -56z m-790 15 c24 -97 29
-88 -52 -106 -39 -10 -75 -17 -78 -17 -8 0 -32 120 -26 127 8 7 99 31 124 32
18 1 24 -7 32 -36z m649 -10 c11 -10 23 -37 27 -59 6 -41 6 -41 -34 -51 -45
-12 -44 -13 -56 64 -4 23 -4 47 0 53 10 15 40 12 63 -7z m-839 -43 c13 -62 14
-90 2 -90 -5 0 -22 -3 -38 -6 -27 -5 -31 -3 -36 23 -10 48 23 122 55 123 3 0
11 -23 17 -50z m1510 -6 c13 -58 8 -73 -26 -74 -6 0 -18 -3 -26 -6 -11 -4 -18
8 -27 45 -17 72 -11 81 56 90 6 0 16 -24 23 -55z m-770 -15 c14 -70 17 -64
-32 -77 -41 -12 -36 -19 -55 80 -9 46 -9 47 17 51 59 9 58 10 70 -54z m646 4
c3 -21 9 -48 11 -59 4 -17 0 -23 -23 -28 -15 -4 -35 -9 -45 -12 -13 -4 -18 6
-24 48 -11 73 -12 71 16 79 50 14 57 11 65 -28z m-6360 -40 c50 -20 93 -39 97
-42 7 -7 -54 -145 -69 -154 -5 -3 -48 14 -96 38 -48 24 -103 47 -123 51 -50 9
-51 23 -9 103 37 70 37 70 74 55 20 -9 77 -32 126 -51z m5589 25 c4 -24 9 -53
12 -64 5 -18 0 -23 -33 -29 -21 -4 -40 -8 -43 -8 -3 -2 -28 101 -30 125 0 7
29 14 66 17 18 1 23 -6 28 -41z m356 1 c0 -6 -52 -20 -57 -16 -1 1 -5 15 -8
30 -7 28 -7 28 29 11 20 -10 36 -21 36 -25z m1133 -36 c140 -300 190 -692 128
-1000 -100 -489 -410 -818 -880 -935 -135 -34 -390 -32 -523 4 -518 141 -890
624 -1005 1306 -23 136 -26 469 -4 520 16 38 31 42 31 7 0 -15 6 -25 14 -25
12 0 14 -20 9 -122 -7 -144 8 -312 43 -486 118 -590 477 -1029 942 -1148 90
-24 110 -25 267 -21 305 8 504 89 706 287 174 171 279 373 323 622 54 302 4
676 -126 941 -26 54 -48 100 -48 102 0 5 57 23 76 24 6 1 27 -34 47 -76z
m-506 42 c27 -14 27 -14 -2 -25 -33 -12 -31 -13 -41 24 -5 21 -4 27 5 22 6 -4
23 -13 38 -21z m-1102 -59 c12 -63 12 -63 -30 -73 -42 -10 -42 -10 -54 55 -7
35 -11 66 -9 67 6 6 73 22 77 19 2 -2 9 -32 16 -68z m771 11 c13 -63 10 -66
-45 -37 -73 37 -60 104 19 96 9 -1 18 -22 26 -59z m434 24 c5 -11 6 -22 2 -25
-14 -8 -46 20 -38 32 11 17 24 15 36 -7z m244 3 c3 -9 6 -22 6 -31 0 -8 10
-23 22 -32 21 -18 20 -18 -47 -35 -74 -18 -80 -17 -90 31 -6 30 -4 33 42 57
58 30 59 30 67 10z m-1565 -110 c1 -17 -8 -23 -46 -31 -56 -13 -58 -11 -67 59
-8 59 -7 60 47 74 42 10 42 10 54 -35 6 -25 12 -55 12 -67z m637 24 c11 -57
11 -57 -15 -63 -14 -3 -33 -8 -42 -11 -13 -3 -19 8 -28 53 -12 59 -9 68 24 76
41 10 49 3 61 -55z m84 37 c65 -33 68 -59 9 -75 -23 -6 -42 -10 -44 -8 -4 6
-22 108 -18 108 2 0 26 -11 53 -25z m-872 -47 c6 -34 9 -64 7 -66 -2 -3 -37
-12 -77 -22 -73 -17 -73 -17 -85 48 -7 36 -11 67 -10 68 5 3 123 32 138 33 11
1 18 -15 27 -61z m1423 39 c9 -7 19 -33 22 -58 6 -47 6 -47 -30 -54 -43 -8
-48 -3 -61 60 -8 37 -8 52 1 57 18 11 50 9 68 -5z m-762 -41 c17 -67 15 -74
-26 -85 -44 -12 -38 -18 -52 48 -12 57 -9 66 24 74 39 9 43 7 54 -37z m911 5
c10 -35 8 -37 -42 -46 -36 -7 -37 -6 -46 26 -8 34 -8 34 32 44 49 13 45 15 56
-24z m-254 -37 c7 -32 12 -60 11 -61 -4 -2 -42 -5 -63 -4 -17 1 -23 9 -28 39
-4 20 -9 45 -12 54 -4 13 4 20 28 27 48 13 51 11 64 -55z m-1510 -32 c6 -49 6
-49 -57 -65 -35 -9 -64 -15 -66 -14 -1 1 1 33 5 71 7 69 7 69 52 80 52 13 55
10 66 -72z m733 28 c15 -67 15 -67 -13 -74 -13 -3 -31 -9 -39 -12 -12 -4 -18
8 -27 51 -12 59 -9 70 25 78 40 9 43 6 54 -43z m647 13 c3 -16 7 -34 10 -40 5
-18 -5 -16 -50 10 -44 25 -48 39 -14 49 41 11 48 9 54 -19z m-767 -43 c15 -69
16 -66 -29 -78 -47 -12 -48 -11 -56 61 -6 53 -5 55 17 60 55 10 57 9 68 -43z
m1364 26 c3 -8 3 -24 0 -35 -4 -14 -1 -21 10 -21 12 0 32 -38 24 -46 -4 -5
-161 -43 -164 -40 -7 7 -25 117 -21 122 8 7 99 31 124 33 12 0 24 -5 27 -13z
m-739 -9 c15 -11 42 -94 34 -103 -2 -1 -21 -4 -42 -6 -40 -3 -40 -3 -51 54
-11 50 -10 58 4 61 29 8 37 7 55 -6z m-749 -43 c3 -26 9 -52 11 -59 3 -7 -6
-15 -23 -18 -15 -3 -35 -8 -44 -12 -13 -5 -18 3 -23 37 -4 24 -9 53 -12 65 -5
18 -1 22 23 26 61 9 60 9 68 -39z m653 -29 c7 -32 11 -59 9 -61 -1 -2 -23 -4
-47 -6 -44 -3 -44 -3 -55 54 -12 57 -12 57 24 66 52 14 55 12 69 -53z m651 -2
c14 -74 15 -70 -16 -77 -16 -4 -35 -9 -44 -12 -13 -3 -18 5 -23 38 -4 24 -9
52 -12 64 -5 19 15 30 77 43 3 0 11 -25 18 -56z m-1435 39 c3 -5 8 -31 11 -59
7 -50 7 -50 -40 -62 -26 -7 -48 -11 -50 -9 -4 5 -25 96 -25 107 0 18 94 39
104 23z m654 -64 c6 -34 10 -63 8 -65 -1 -2 -20 -4 -41 -6 -38 -2 -38 -2 -51
53 -7 30 -13 56 -14 57 0 3 61 21 76 22 6 1 16 -27 22 -61z m336 43 c30 -20
30 -20 2 -27 -28 -7 -46 6 -46 34 0 17 10 15 44 -7z m-1124 -57 c7 -30 10 -58
7 -61 -4 -3 -140 -41 -154 -43 -1 0 -5 26 -9 58 -4 31 -7 59 -8 62 -1 4 118
36 146 39 4 1 12 -24 18 -55z m1439 19 c21 -86 22 -80 -22 -92 -23 -5 -42 -9
-43 -8 -1 1 -5 12 -8 24 -7 21 -5 22 23 17 45 -9 41 21 -4 40 -55 23 -44 51
22 55 18 1 24 -7 32 -36z m-773 -36 c13 -64 13 -62 -37 -72 -36 -7 -37 -6 -43
32 -4 21 -10 48 -13 60 -4 18 1 24 29 32 48 13 51 11 64 -52z m-132 18 c12
-32 18 -115 9 -115 -6 0 -24 -3 -40 -6 -29 -6 -30 -5 -41 52 -13 60 -10 69 23
77 36 8 43 7 49 -8z m744 -1 c37 -18 37 -19 46 -61 7 -30 5 -32 -30 -42 -21
-6 -39 -9 -40 -8 -1 1 -9 30 -17 65 -16 69 -12 73 41 46z m-1472 -56 c11 -57
11 -57 -70 -75 -81 -19 -81 -19 -84 40 -4 70 -7 65 55 82 78 22 86 18 99 -47z
m1393 0 c15 -64 15 -65 -16 -72 -16 -4 -35 -9 -43 -12 -12 -3 -19 10 -29 57
-7 34 -11 62 -9 63 11 9 74 22 79 17 4 -3 11 -27 18 -53z m-778 -13 c14 -62
10 -70 -37 -79 -36 -8 -40 -3 -50 73 -7 54 -11 50 63 60 6 0 17 -23 24 -54z
m654 -38 c7 -45 6 -46 -21 -52 -16 -4 -34 -8 -40 -10 -10 -3 -41 112 -32 120
2 2 19 7 38 12 40 11 44 6 55 -70z m739 61 c3 -13 1 -24 -4 -26 -15 -5 -12
-32 4 -32 7 0 16 -8 19 -19 4 -16 -7 -21 -77 -36 -44 -10 -85 -19 -90 -19 -10
-1 -38 105 -30 114 6 6 131 37 155 39 9 1 19 -9 23 -21z m-1516 -55 c12 -66
10 -69 -39 -78 -36 -7 -36 -7 -44 52 -4 32 -8 60 -9 63 -1 4 42 16 71 19 6 0
15 -24 21 -56z m662 -64 c0 -10 -11 -20 -27 -23 -16 -4 -35 -9 -45 -12 -13 -4
-18 6 -27 46 -16 74 -15 76 32 86 42 9 42 9 54 -36 7 -25 13 -52 13 -61z
m-784 28 c11 -57 11 -57 -30 -67 -23 -6 -46 -13 -52 -15 -7 -2 -14 14 -18 38
-4 23 -9 52 -12 63 -5 18 1 23 33 32 60 16 66 12 79 -51z m1430 1 c11 -56 11
-56 -30 -67 -47 -12 -51 -8 -61 57 -7 47 -2 57 30 65 41 10 49 3 61 -55z
m-786 -14 c12 -58 7 -73 -27 -74 -6 0 -18 -3 -26 -6 -11 -4 -18 7 -26 46 -15
71 -14 78 12 83 53 10 55 9 67 -49z m-796 29 c3 -10 8 -39 11 -64 7 -47 7 -47
-70 -64 -42 -9 -78 -15 -80 -13 -1 1 -7 29 -12 61 -10 57 -10 57 26 66 20 6
52 14 71 19 49 14 48 14 54 -5z m1451 -20 c3 -21 9 -48 12 -60 4 -18 -1 -23
-34 -32 -21 -6 -41 -11 -44 -11 -4 0 -10 21 -14 46 -3 26 -9 52 -11 59 -3 8 7
17 23 23 50 19 60 15 68 -25z m-765 -94 c0 -9 -79 -28 -84 -20 -2 3 -6 24 -10
46 -4 22 -9 47 -12 56 -3 12 6 18 38 25 43 9 43 9 55 -46 7 -30 12 -58 13 -61z
m646 39 c11 -58 11 -58 -25 -68 -20 -5 -39 -10 -43 -10 -5 0 -21 81 -23 115 0
10 41 24 65 22 9 -2 18 -23 26 -59z m-780 -15 c7 -31 12 -58 11 -60 -2 -1 -21
-5 -44 -9 -40 -6 -40 -6 -48 41 -3 26 -9 53 -11 60 -5 11 64 37 75 29 2 -2 9
-29 17 -61z m-745 21 c19 -86 17 -89 -69 -107 -105 -23 -100 -25 -104 43 -3
68 -11 61 107 89 53 12 59 10 66 -25z m1398 -11 c21 -87 22 -82 -18 -90 -20
-4 -40 -8 -46 -8 -5 0 -14 26 -21 58 -11 57 -11 57 20 66 50 15 55 13 65 -26z
m-772 -41 c10 -52 10 -54 -14 -63 -57 -21 -65 -14 -78 67 -6 42 -6 42 32 51
47 12 48 11 60 -55z m1398 7 c4 -28 3 -54 -1 -59 -17 -14 -155 -43 -165 -33
-5 5 -10 31 -11 58 -3 49 -3 49 62 66 105 28 107 27 115 -32z m-750 -5 c3 -26
9 -52 11 -59 5 -13 -73 -39 -80 -26 -2 3 -7 26 -11 51 -3 25 -7 49 -8 55 -2 8
32 20 69 24 7 0 15 -20 19 -45z m-767 -89 c-2 -2 -22 -7 -44 -10 -40 -7 -40
-7 -50 54 -10 61 -10 61 31 69 40 8 40 8 54 -51 7 -32 11 -60 9 -62z m648 45
c7 -30 13 -56 14 -56 0 -1 -16 -5 -36 -8 -19 -4 -41 -9 -48 -12 -9 -3 -15 8
-20 33 -3 21 -9 48 -12 60 -5 18 -1 23 27 32 54 15 61 10 75 -49z m-781 -7 c9
-71 10 -67 -18 -74 -81 -21 -74 -24 -83 34 -5 28 -8 56 -9 62 0 7 59 28 96 34
4 1 10 -25 14 -56z m1433 5 c12 -61 10 -64 -39 -73 -37 -7 -37 -7 -48 45 -6
28 -11 53 -11 55 0 5 57 23 76 24 6 1 16 -23 22 -51z m-795 18 c3 -7 8 -34 12
-58 7 -45 7 -45 -33 -55 -40 -10 -40 -10 -51 45 -12 58 -9 67 24 75 35 8 43 7
48 -7z m668 -51 c14 -63 16 -60 -33 -69 -37 -7 -37 -6 -48 34 -15 55 -10 73
20 81 45 12 48 10 61 -46z m-1457 37 c3 -5 8 -31 12 -59 6 -50 6 -50 -71 -68
-42 -9 -78 -15 -80 -13 -1 1 -7 28 -12 58 -9 55 -9 55 52 72 70 19 92 21 99
10z m675 -52 c15 -69 16 -67 -25 -75 -46 -8 -53 -1 -56 60 -3 44 -1 49 22 56
44 13 48 10 59 -41z m659 -12 c12 -61 10 -65 -38 -70 -33 -3 -34 -2 -43 40
-13 64 -6 73 59 81 6 0 16 -23 22 -51z m-781 -23 c11 -62 12 -61 -40 -70 -29
-6 -37 -4 -37 7 0 9 -3 36 -6 61 -6 42 -5 46 17 50 54 10 55 9 66 -48z m-742
-11 c4 -31 5 -57 3 -58 -7 -6 -170 -38 -173 -34 -3 3 -24 113 -22 114 15 6
139 32 158 33 25 1 27 -3 34 -55z m1399 19 c4 -21 9 -46 12 -55 4 -13 -5 -20
-37 -28 -43 -12 -58 -5 -59 26 0 6 -3 25 -6 42 -6 28 -4 32 27 41 53 15 56 13
63 -26z m610 -34 c7 -55 7 -55 -62 -72 -100 -24 -93 -28 -107 55 -7 36 -7 36
77 55 45 11 84 19 84 19 1 -1 5 -26 8 -57z m-1387 -4 c11 -62 12 -60 -39 -69
-34 -6 -37 -5 -42 21 -3 15 -8 42 -11 60 -5 27 -3 32 17 36 62 12 64 10 75
-48z m652 -7 c13 -57 10 -63 -36 -71 -31 -6 -33 -5 -43 34 -15 53 -10 72 20
80 43 12 46 10 59 -43z m-785 15 c3 -10 8 -35 11 -55 7 -36 7 -37 -35 -48 -50
-13 -44 -18 -57 52 -9 54 -8 57 11 61 46 9 65 7 70 -10z m660 -30 c4 -21 9
-45 12 -54 3 -13 -7 -19 -42 -28 -26 -7 -47 -11 -49 -9 -1 2 -7 27 -12 56 -10
52 -10 52 21 61 56 16 63 14 70 -26z m664 -78 c-2 -2 -22 -7 -45 -11 -40 -6
-40 -6 -47 32 -4 22 -9 46 -12 55 -3 12 6 18 38 25 43 9 43 9 57 -44 7 -29 12
-55 9 -57z m-1468 -22 c-61 -20 -67 -17 -76 35 -4 26 -8 51 -9 56 0 6 23 15
50 21 50 10 50 10 60 -45 10 -55 10 -55 -25 -67z m674 54 c10 -54 5 -62 -41
-70 -31 -6 -32 -6 -40 41 -11 66 -11 65 17 73 45 13 54 6 64 -44z m661 -13 c7
-51 7 -51 -30 -58 -38 -7 -54 2 -55 30 0 6 -3 25 -6 42 -6 28 -4 30 32 39 48
12 51 10 59 -53z m-1452 -2 c12 -61 7 -67 -63 -81 -34 -7 -68 -15 -75 -17 -9
-4 -15 8 -20 38 -3 24 -8 50 -11 59 -3 12 10 19 58 31 92 23 101 21 111 -30z
m-4554 -30 c52 -113 29 -105 -30 11 -21 40 -25 57 -16 57 8 0 28 -31 46 -68z
m5215 51 c3 -10 8 -34 11 -54 7 -35 6 -36 -34 -46 -45 -12 -45 -12 -56 60 -7
42 -5 46 16 50 47 9 58 7 63 -10z m675 -97 c-2 -2 -20 -6 -40 -10 -37 -7 -37
-7 -49 44 -14 58 -13 60 32 69 33 7 33 7 47 -46 7 -30 12 -55 10 -57z m-782
-22 c-1 -2 -21 -6 -43 -10 -40 -6 -40 -6 -50 49 -10 55 -10 55 30 64 41 8 41
8 54 -46 7 -29 11 -55 9 -57z m-752 34 c7 -46 7 -46 -77 -65 -45 -11 -85 -18
-87 -17 -2 2 -9 27 -16 56 -12 53 -12 53 74 74 96 23 96 23 106 -48z m1404 20
c13 -58 10 -63 -40 -72 -36 -6 -37 -6 -48 38 -6 25 -11 49 -11 54 0 8 43 24
81 31 3 1 11 -22 18 -51z m-784 -24 c8 -65 10 -60 -36 -69 -37 -7 -37 -7 -48
46 -6 28 -10 53 -9 55 3 2 67 21 79 23 4 1 10 -24 14 -55z m1365 34 c-1 -82
-9 -95 -70 -111 -57 -14 -57 -14 -70 40 -6 30 -10 56 -8 57 4 4 120 34 136 35
6 1 12 -9 12 -21z m-711 -40 c13 -57 10 -63 -36 -71 -35 -7 -36 -5 -48 65 -7
35 -6 37 26 47 19 5 37 10 41 10 3 1 11 -22 17 -51z m-780 -20 c13 -59 10 -64
-41 -73 -36 -7 -36 -7 -45 47 -9 53 -9 53 27 65 19 6 38 12 42 12 3 1 11 -22
17 -51z m654 13 c3 -16 9 -40 12 -54 6 -23 3 -27 -32 -36 -57 -16 -59 -15 -70
43 -9 55 -9 55 26 64 55 15 58 14 64 -17z m651 2 c3 -10 8 -34 11 -54 6 -35 5
-36 -25 -43 -54 -10 -56 -8 -67 49 -9 53 -9 54 16 58 52 8 60 7 65 -10z
m-1430 -44 c8 -59 6 -63 -51 -76 -41 -10 -41 -10 -48 35 -4 24 -9 50 -12 58
-4 11 44 28 93 33 6 1 14 -22 18 -50z m653 -14 c10 -55 10 -55 -26 -65 -49
-13 -48 -14 -54 19 -3 16 -9 40 -12 54 -6 23 -3 27 27 36 53 15 54 14 65 -44z
m660 -7 c6 -29 10 -54 9 -54 0 -1 -20 -5 -43 -9 -41 -6 -41 -6 -52 45 -6 28
-11 53 -11 55 0 4 35 12 66 14 17 1 22 -8 31 -51z m-1452 -24 c7 -51 7 -51
-51 -63 -33 -6 -69 -14 -80 -17 -20 -5 -23 0 -33 47 -6 28 -9 54 -6 57 9 10
150 40 157 33 4 -3 10 -29 13 -57z m659 39 c3 -10 8 -35 11 -55 7 -36 6 -37
-31 -47 -44 -12 -49 -8 -58 52 -7 43 -3 52 29 60 37 9 44 7 49 -10z m675 -80
c1 -16 -5 -23 -16 -23 -10 0 -28 -3 -39 -6 -20 -5 -23 0 -33 47 -13 60 -16 55
29 66 34 10 35 9 47 -26 6 -20 12 -46 12 -58z m-791 16 c14 -61 17 -55 -35
-67 -41 -10 -41 -10 -48 37 -9 65 -9 65 17 73 49 13 54 10 66 -43z m662 0 c14
-57 10 -65 -41 -74 -37 -7 -37 -7 -48 46 -6 28 -10 53 -9 55 3 2 68 21 80 23
3 1 11 -22 18 -50z m-1417 24 c3 -10 8 -35 11 -55 7 -36 6 -37 -33 -48 -22 -6
-56 -11 -77 -13 -36 -2 -37 -1 -54 48 -17 50 -17 50 54 66 94 22 94 22 99 2z
m627 -20 c0 -10 3 -34 6 -54 6 -36 5 -37 -31 -43 -46 -9 -52 -4 -60 56 -7 43
-5 47 16 51 52 10 69 7 69 -10z m669 -75 c1 -20 -4 -23 -46 -32 -31 -7 -31 -7
-42 45 -13 59 -13 59 31 68 31 7 34 5 45 -28 6 -20 12 -44 12 -53z m655 50
c-10 -61 -21 -88 -38 -88 -8 0 -21 -3 -29 -6 -14 -5 -30 48 -32 101 0 7 63 30
98 34 4 1 4 -18 1 -41z m-1436 -93 c-2 -2 -22 -6 -45 -10 -42 -7 -42 -7 -48
32 -4 21 -9 46 -11 55 -4 13 5 19 38 25 43 9 43 9 56 -45 7 -30 11 -56 10 -57z
m651 53 c13 -56 7 -66 -36 -69 -13 -1 -29 -2 -35 -3 -7 -1 -18 22 -24 51 -12
52 -12 52 25 61 57 16 59 15 70 -40z m650 5 c17 -62 15 -70 -25 -78 -45 -8
-52 -1 -60 57 -6 43 -5 47 17 51 53 10 58 8 68 -30z m-1437 -43 c3 -43 3 -43
-43 -55 -47 -12 -47 -12 -58 43 -6 30 -10 56 -8 57 1 1 22 6 47 11 53 11 58 7
62 -56z m655 5 c10 -55 10 -55 -26 -65 -20 -5 -39 -10 -43 -10 -5 0 -28 86
-28 105 0 5 57 23 76 24 6 1 15 -24 21 -54z m660 -5 c11 -56 12 -56 -38 -65
-34 -6 -36 -5 -42 23 -3 16 -9 41 -12 55 -6 21 -3 26 17 30 62 12 65 10 75
-43z m-1452 -30 c6 -45 6 -45 -71 -63 -57 -12 -80 -14 -85 -6 -9 15 -21 90
-15 96 2 2 37 12 77 22 83 19 84 19 94 -49z m659 43 c3 -10 8 -35 11 -55 7
-35 5 -37 -21 -43 -16 -4 -35 -8 -41 -10 -14 -5 -24 26 -26 77 -2 32 3 36 65
47 4 0 9 -7 12 -16z m672 -50 c7 -44 4 -47 -43 -57 -31 -7 -31 -7 -42 45 -13
60 -16 55 29 66 41 11 46 6 56 -54z m-788 -14 c7 -29 11 -53 10 -54 -2 -1 -22
-7 -45 -12 -43 -11 -43 -11 -49 36 -3 25 -7 50 -7 56 -2 8 31 20 69 24 6 0 16
-22 22 -50z m656 34 c3 -10 8 -35 11 -55 7 -36 7 -37 -35 -48 -49 -13 -44 -17
-59 44 -14 56 -16 51 29 64 48 14 48 14 54 -5z m-1405 -44 c6 -29 10 -54 7
-56 -2 -2 -29 -10 -59 -17 -55 -13 -55 -13 -78 36 -12 26 -20 50 -18 52 5 5
108 34 126 35 6 1 16 -22 22 -50z m614 24 c3 -5 8 -29 12 -54 7 -46 7 -46 -30
-53 -46 -9 -52 -4 -60 56 -7 43 -5 47 16 51 40 7 58 7 62 0z m673 -60 c7 -44
10 -40 -55 -58 -16 -5 -21 2 -30 46 -13 59 -13 59 31 68 38 8 44 2 54 -56z
m-785 -64 c-3 -4 -23 -10 -43 -13 -40 -7 -40 -7 -52 65 -6 36 -6 36 36 45 43
9 43 9 54 -41 6 -27 8 -53 5 -56z m1376 76 c-13 -43 -23 -45 -29 -5 -5 34 -2
40 23 40 15 0 16 -4 6 -35z m-723 8 c3 -10 8 -35 11 -55 7 -36 7 -36 -37 -45
-49 -11 -54 -6 -64 54 -6 40 -6 41 32 51 54 14 52 14 58 -5z m649 0 c3 -5 8
-29 12 -54 7 -46 7 -46 -31 -52 -47 -8 -51 -4 -59 55 -7 43 -5 47 16 51 40 7
58 7 62 0z m-1434 -55 c13 -60 10 -65 -45 -74 -42 -6 -42 -6 -53 46 -6 29 -10
54 -9 55 2 1 23 7 48 12 25 6 46 11 47 12 1 0 6 -22 12 -51z m655 5 c4 -21 9
-45 12 -54 3 -12 -7 -18 -40 -26 -43 -10 -44 -9 -50 17 -3 15 -8 39 -11 53 -6
23 -3 27 27 36 52 15 55 13 62 -26z m669 -40 c6 -30 4 -33 -31 -43 -51 -14
-49 -15 -56 29 -3 22 -8 46 -11 54 -4 10 6 16 37 23 47 10 46 11 61 -63z
m-1469 30 c25 -85 23 -87 -61 -105 -43 -9 -81 -13 -84 -10 -4 4 -10 28 -13 53
-7 47 -7 47 51 62 79 20 101 20 107 0z m670 0 c3 -10 8 -34 11 -54 7 -37 7
-37 -35 -44 -50 -9 -49 -10 -52 50 -3 44 -1 49 22 56 40 11 48 10 54 -8z m671
-45 c7 -46 6 -47 -21 -53 -16 -4 -34 -8 -40 -10 -9 -3 -39 93 -32 101 8 7 74
20 80 15 3 -3 9 -27 13 -53z m-788 -18 c11 -56 12 -56 -39 -65 -39 -8 -40 -7
-52 67 -6 34 -5 37 21 41 60 9 60 9 70 -43z m662 13 c18 -64 15 -71 -31 -80
-47 -10 -46 -10 -61 64 -6 29 -4 32 31 41 20 5 40 10 44 11 4 1 12 -16 17 -36z
m-1411 -25 c12 -62 14 -57 -30 -64 -32 -6 -35 -4 -61 44 -27 49 -27 49 16 59
23 6 47 11 53 12 6 0 16 -23 22 -51z m615 25 c3 -5 8 -27 12 -50 7 -42 6 -42
-31 -52 -46 -13 -50 -9 -59 51 -6 40 -4 47 12 51 30 8 62 8 66 0z m671 -47
c10 -55 11 -52 -35 -61 -37 -7 -37 -7 -47 42 -12 53 -9 59 28 66 40 7 45 3 54
-47z m-818 -83 c-48 -15 -52 -12 -60 49 -7 47 -7 47 36 55 43 9 43 9 53 -42
11 -50 11 -50 -29 -62z m694 66 c15 -54 9 -65 -36 -72 -47 -8 -52 -3 -56 52
-3 40 0 45 22 52 51 14 59 11 70 -32z m613 -23 c-26 -53 -43 -70 -43 -43 0 6
-3 28 -6 48 -6 36 -5 37 32 46 22 5 40 9 42 8 2 -2 -9 -28 -25 -59z m-1409 7
c4 -21 9 -45 12 -55 4 -12 -4 -18 -28 -23 -18 -4 -41 -9 -50 -11 -13 -4 -19 5
-27 33 -19 69 -15 74 80 92 4 0 10 -16 13 -36z m664 -20 c12 -55 10 -58 -40
-67 -40 -7 -41 -6 -53 66 -7 34 -5 37 22 41 59 9 59 9 71 -40z m660 -5 c12
-61 10 -64 -39 -73 -36 -7 -36 -7 -43 46 -8 57 -4 65 34 72 14 2 28 5 31 6 4
0 11 -23 17 -51z m-1453 -76 c-2 -2 -39 -12 -83 -22 -79 -17 -79 -17 -89 36
-9 53 -9 53 71 72 81 18 81 18 93 -32 6 -28 10 -52 8 -54z m659 81 c21 -77 20
-81 -24 -93 -23 -6 -44 -10 -45 -8 -2 2 -7 27 -11 55 -6 48 -5 52 17 56 47 9
58 7 63 -10z m673 -38 c10 -55 10 -55 -26 -65 -20 -5 -39 -10 -42 -10 -6 0
-22 73 -24 105 0 8 33 20 71 24 6 0 15 -24 21 -54z m-822 -81 c-46 -12 -49 -9
-59 52 -7 41 -7 41 36 50 43 9 43 9 53 -41 11 -50 11 -50 -30 -61z m688 99 c3
-5 8 -29 12 -55 7 -44 6 -47 -16 -52 -62 -14 -61 -14 -74 42 -9 39 -9 54 -1
57 6 2 18 6 26 8 23 8 48 8 53 0z m-1413 -15 c0 -7 3 -31 6 -53 6 -40 6 -40
-26 3 -27 36 -30 46 -19 53 20 13 39 11 39 -3z m625 -35 c4 -21 9 -45 11 -54
3 -11 -7 -18 -40 -26 -43 -10 -43 -10 -53 43 -9 53 -9 53 26 62 20 6 39 10 43
11 4 1 10 -16 13 -36z m671 -27 c10 -54 10 -54 -32 -63 -42 -10 -42 -10 -48
26 -3 20 -9 46 -12 58 -6 23 6 30 57 32 23 1 26 -4 35 -53z m-792 -3 c10 -66
9 -69 -38 -80 -43 -10 -43 -10 -53 44 -10 53 -9 54 16 59 14 3 31 7 36 9 25 9
33 2 39 -32z m671 -34 c7 -45 7 -45 -39 -56 -45 -10 -45 -10 -55 39 -15 68
-16 66 32 76 49 10 52 6 62 -59z m-801 4 c10 -66 9 -70 -30 -77 -19 -4 -41 -9
-48 -12 -9 -4 -15 10 -20 47 -8 59 -8 59 36 69 53 13 55 12 62 -27z m665 -20
c6 -31 10 -57 8 -59 -1 -1 -21 -5 -44 -9 -41 -6 -41 -6 -52 46 -6 28 -10 53
-9 55 3 2 67 21 79 23 3 1 11 -25 18 -56z m620 1 c-23 -35 -34 -43 -40 -33
-18 29 -10 58 19 65 15 3 32 7 37 9 6 2 11 4 13 4 2 1 -11 -20 -29 -45z
m-1425 -11 c11 -68 10 -69 -51 -83 -57 -12 -57 -12 -90 24 -18 19 -33 42 -33
49 0 11 92 38 156 46 6 0 14 -16 18 -36z m676 -19 c14 -65 16 -59 -36 -67 -41
-7 -41 -7 -51 48 -10 55 -9 56 16 61 14 3 31 7 36 9 6 2 13 4 17 4 4 1 12 -24
18 -55z m668 -6 c10 -52 10 -54 -21 -85 -17 -18 -34 -33 -37 -33 -3 0 -13 34
-22 75 -15 75 -15 75 16 84 51 15 53 13 64 -41z m-798 15 c0 -10 3 -35 6 -55
6 -35 5 -37 -32 -47 -44 -12 -49 -8 -58 52 -7 43 -3 52 29 60 41 10 55 7 55
-10z m679 -60 c7 -38 14 -77 17 -89 4 -15 -4 -28 -31 -49 -45 -34 -47 -32 -70
87 -18 91 -16 102 20 111 49 12 51 9 64 -60z m-801 -5 c5 -29 9 -54 8 -55 -1
-1 -20 -6 -43 -11 -41 -9 -41 -9 -48 27 -3 20 -9 46 -12 58 -4 18 0 22 24 26
61 9 60 9 71 -45z m681 -68 c12 -60 19 -114 16 -120 -7 -11 -65 -43 -69 -38
-4 4 -50 242 -48 248 1 6 40 18 62 19 12 1 21 -25 39 -109z m-816 83 c3 -5 8
-29 12 -55 7 -46 7 -46 -36 -55 -44 -9 -44 -9 -56 42 -7 27 -9 53 -5 57 16 14
78 22 85 11z m696 -120 c13 -65 26 -123 28 -129 5 -14 -77 -48 -87 -37 -6 7
-60 245 -60 265 0 7 31 14 70 17 25 1 26 -3 49 -116z m-815 36 c7 -47 7 -47
-29 -53 -20 -4 -42 -9 -49 -12 -9 -3 -17 13 -25 52 -6 32 -10 58 -8 59 1 1 22
6 47 11 52 11 55 9 64 -57z m685 -83 c17 -76 30 -140 28 -142 -11 -12 -89 -21
-92 -11 -7 22 -55 270 -53 272 4 3 82 22 85 21 1 -1 15 -64 32 -140z m-826 66
c11 -59 5 -61 -48 -18 -51 42 -55 53 -22 59 50 10 61 4 70 -41z m697 -97 c15
-74 25 -137 21 -139 -3 -2 -24 -6 -46 -8 -40 -3 -40 -3 -66 132 -15 74 -26
136 -25 136 5 4 82 20 85 18 2 -2 16 -64 31 -139z m-133 -6 c30 -155 31 -149
-16 -149 -22 0 -42 4 -45 9 -11 16 -47 223 -42 237 4 11 47 23 71 19 6 -1 20
-53 32 -116z m-128 -16 c11 -60 21 -111 21 -116 0 -10 -84 4 -92 16 -5 9 -32
157 -33 182 0 8 34 20 71 24 6 0 20 -45 33 -106z m-131 -6 c8 -43 12 -80 10
-83 -3 -2 -26 3 -51 12 -50 17 -56 26 -60 98 -2 35 1 41 23 47 56 17 63 10 78
-74z m-144 37 c3 -9 6 -27 6 -40 0 -24 0 -24 -50 1 -56 29 -63 42 -22 48 52 8
60 7 66 -9z"/>
<path d="M5490 9332 c0 -10 8 -29 17 -42 15 -22 12 -21 -24 8 -67 53 -91 33
-30 -26 34 -33 66 -42 68 -19 0 6 5 2 11 -10 6 -13 17 -23 25 -23 21 0 15 39
-12 87 -26 44 -55 57 -55 25z"/>
<path d="M5022 9319 c-52 -10 -62 -16 -62 -36 0 -12 7 -14 28 -9 93 20 119 19
171 -9 52 -29 73 -28 55 3 -14 23 -93 62 -124 61 -14 -1 -44 -5 -68 -10z"/>
<path d="M5280 9282 c0 -32 100 -102 145 -102 31 0 13 31 -32 54 -27 13 -57
33 -67 45 -23 26 -46 27 -46 3z"/>
<path d="M5626 9258 c10 -45 9 -52 -6 -98 -7 -22 -10 -43 -7 -46 12 -13 38 7
48 36 6 16 15 30 20 30 18 0 9 70 -11 90 -32 32 -53 26 -44 -12z"/>
<path d="M5790 9237 c0 -31 -8 -55 -25 -81 -38 -56 -33 -67 17 -44 45 21 66
158 26 166 -15 3 -18 -4 -18 -41z"/>
<path d="M5110 9207 c0 -15 117 -73 127 -63 12 12 -12 40 -48 58 -41 20 -79
23 -79 5z"/>
<path d="M4759 9141 c-30 -30 -38 -61 -16 -61 15 1 87 66 87 80 0 21 -43 9
-71 -19z"/>
<path d="M5880 9136 c0 -8 -11 -28 -25 -44 -28 -33 -33 -62 -11 -62 19 0 62
57 71 93 6 23 4 27 -14 27 -12 0 -21 -6 -21 -14z"/>
<path d="M5010 9116 c0 -10 17 -25 43 -36 48 -22 117 -27 117 -7 0 10 -41 26
-142 54 -12 4 -18 0 -18 -11z"/>
<path d="M5930 9040 c-12 -23 -60 -50 -90 -50 -11 0 -20 -7 -20 -15 0 -11 11
-15 35 -15 62 0 115 39 115 84 0 23 -27 20 -40 -4z"/>
<path d="M5180 8482 c0 -4 -46 -6 -103 -4 -90 4 -109 1 -145 -17 -23 -12 -48
-21 -57 -21 -8 0 -15 -7 -15 -15 0 -8 5 -15 12 -15 6 0 4 -7 -5 -18 -36 -40
-12 -55 36 -24 23 16 43 18 120 15 98 -5 190 10 220 35 22 20 22 31 -5 53 -21
19 -58 26 -58 11z m-42 -51 c23 -14 -31 -22 -108 -15 -44 4 -66 10 -58 15 17
11 149 11 166 0z"/>
<path d="M5523 8483 c-7 -2 -13 -13 -13 -24 0 -10 -7 -19 -15 -19 -21 0 -19
-23 3 -43 21 -19 42 -22 42 -7 0 6 9 6 23 1 42 -16 112 -21 172 -12 55 8 63 7
92 -15 49 -37 75 -25 36 18 -9 11 -11 18 -5 18 7 0 12 7 12 15 0 8 -8 15 -17
15 -9 0 -25 8 -36 18 -15 14 -42 18 -138 20 -65 2 -119 8 -119 13 0 10 -17 11
-37 2z m230 -52 c9 -1 17 -5 17 -11 0 -12 -111 -13 -161 -3 -34 7 -34 7 1 13
19 3 55 4 80 3 25 -1 53 -2 63 -2z"/>
<path d="M5117 8263 c-120 -162 -139 -199 -140 -277 -3 -119 32 -251 59 -223
3 3 -2 43 -10 89 -21 109 -20 118 4 118 11 0 20 7 20 15 0 8 5 15 10 15 6 0
10 11 10 25 0 15 6 25 14 25 8 0 16 6 19 13 6 17 113 48 170 49 45 2 67 12 67
34 0 40 -183 0 -268 -59 -42 -28 -43 -28 -31 -6 20 39 110 159 118 159 4 0 16
-9 26 -20 22 -24 115 -27 115 -3 0 11 5 11 30 -2 39 -20 66 -19 100 5 27 19
28 19 23 1 -11 -42 100 -33 115 10 8 19 13 15 54 -42 63 -89 100 -162 62 -125
-8 9 -22 16 -30 16 -8 0 -14 7 -14 15 0 27 -111 65 -187 63 -28 0 -43 -5 -43
-13 0 -17 25 -37 42 -34 53 9 185 -35 194 -65 4 -11 13 -26 20 -34 8 -7 14
-20 14 -28 0 -8 7 -14 15 -14 20 0 19 -21 -5 -115 -21 -81 -20 -91 3 -82 41
15 68 232 40 310 -20 52 -132 217 -148 217 -6 0 -15 10 -20 22 -12 26 -41 45
-52 35 -4 -5 0 -22 10 -38 9 -17 17 -40 17 -51 0 -20 -1 -20 -18 -5 -25 23
-60 21 -100 -3 -41 -25 -57 -25 -89 0 -33 26 -107 28 -123 3 -9 -15 -10 -10
-6 21 3 21 14 49 26 61 25 27 26 45 1 45 -13 0 -50 -43 -114 -127z"/>
<path d="M5232 8079 c-66 -12 -172 -98 -172 -139 0 -26 43 -74 93 -104 90 -52
299 -61 391 -17 52 26 116 92 116 121 0 29 -87 117 -128 131 -43 14 -237 19
-300 8z m271 -42 c24 -10 1 -12 -138 -12 -139 0 -162 2 -138 12 16 7 74 12
138 12 64 0 122 -5 138 -12z m60 -80 c32 -24 36 -31 27 -48 -10 -17 -13 -18
-25 -5 -8 8 -15 19 -15 25 0 6 -7 11 -15 11 -8 0 -15 5 -15 10 0 19 -32 10
-37 -10 -6 -24 -23 -16 -23 11 0 10 -7 19 -15 19 -8 0 -15 -9 -15 -19 0 -19
-23 -35 -34 -24 -3 4 -6 15 -6 25 0 10 -7 18 -15 18 -8 0 -15 -6 -15 -14 0 -7
-7 -19 -16 -26 -13 -11 -16 -10 -21 8 -6 25 -43 31 -43 7 0 -8 -4 -15 -10 -15
-5 0 -10 7 -10 15 0 24 -30 17 -31 -7 -1 -17 -2 -19 -6 -5 -5 18 -33 24 -33 7
0 -5 -6 -10 -14 -10 -8 0 -16 -5 -18 -12 -3 -7 -12 -9 -24 -4 -18 7 -18 8 6
27 55 45 78 49 236 46 148 -2 151 -3 187 -30z m-68 -79 c35 -16 31 -26 -16
-38 -55 -15 -142 -15 -211 -1 -61 13 -72 26 -35 41 33 13 232 12 262 -2z"/>
<path d="M5220 7758 c0 -59 277 -61 289 -3 3 16 -1 17 -30 9 -44 -11 -174 -11
-221 0 -31 7 -38 5 -38 -6z"/>
<path d="M5298 7683 c-31 -8 -20 -32 18 -39 36 -7 121 -1 131 9 3 4 3 13 0 22
-6 15 -103 20 -149 8z"/>
<path d="M5320 7530 c0 -11 7 -20 15 -20 8 0 15 9 15 20 0 11 -7 20 -15 20 -8
0 -15 -9 -15 -20z"/>
<path d="M5370 7525 c0 -8 7 -15 15 -15 8 0 15 7 15 15 0 8 -7 15 -15 15 -8 0
-15 -7 -15 -15z"/>
<path d="M5270 7513 c0 -45 12 -63 41 -63 16 0 29 5 29 10 0 6 7 10 15 10 8 0
15 7 15 15 0 18 -9 19 -44 5 -24 -9 -26 -7 -26 15 0 16 -6 25 -15 25 -8 0 -15
-8 -15 -17z"/>
<path d="M2750 6007 c0 -39 285 -243 468 -336 71 -36 82 -38 82 -13 0 11 -23
29 -68 52 -81 42 -243 148 -370 241 -94 70 -112 79 -112 56z"/>
<path d="M3950 968 c0 -12 21 -17 108 -22 94 -7 289 -37 522 -81 104 -20 200
-20 200 0 0 10 -10 15 -27 15 -16 0 -80 9 -143 21 -63 11 -176 31 -250 44
-178 32 -410 45 -410 23z"/>
<path d="M4750 685 c-190 -42 -584 -175 -588 -199 -5 -22 3 -21 141 23 350
113 493 151 570 151 53 0 54 -2 32 -75 -21 -68 -31 -138 -55 -374 -11 -112
-20 -205 -20 -207 0 -2 9 -4 19 -4 23 0 23 1 46 245 17 187 44 344 55 324 23
-43 60 -306 72 -519 2 -33 7 -46 21 -48 15 -3 17 5 17 55 0 143 -40 436 -76
561 -7 24 -7 24 53 -6 33 -17 97 -56 144 -88 262 -179 312 -211 393 -250 49
-24 96 -44 103 -44 30 0 9 27 -43 54 -96 50 -176 101 -339 216 -215 150 -305
194 -404 197 -42 1 -105 -4 -141 -12z"/>
</g></svg>
