<svg xmlns="http://www.w3.org/2000/svg" viewBox="291.64 18.62 406.95 932.33" role="img" aria-labelledby="t"><title id="t">Line drawing: deadlift</title><g transform="translate(0.000000,1024.000000) scale(0.100000,-0.100000)"
fill="currentColor" stroke="none">
<path d="M5448 9974 c-78 -20 -106 -32 -158 -63 -8 -5 -30 -15 -49 -22 -48
-18 -91 -57 -111 -101 -9 -21 -32 -48 -51 -61 -62 -41 -80 -90 -90 -245 -13
-192 2 -296 65 -461 19 -47 39 -104 46 -126 7 -22 25 -64 42 -94 33 -60 33
-85 -7 -203 -26 -76 -59 -128 -83 -128 -9 0 -28 -12 -43 -26 -15 -15 -36 -32
-47 -38 -61 -35 -179 -136 -262 -222 -169 -176 -229 -273 -297 -472 -36 -103
-37 -111 -34 -229 6 -286 5 -368 -8 -558 -20 -273 -20 -268 5 -279 35 -15 50
-204 30 -361 -9 -65 -16 -133 -16 -151 0 -17 -11 -52 -24 -77 -14 -25 -28 -63
-32 -83 -4 -20 -19 -56 -35 -79 -82 -122 -142 -503 -95 -608 8 -18 21 -98 30
-178 9 -80 25 -177 36 -215 15 -53 16 -72 7 -80 -7 -6 -119 -75 -250 -153
-181 -108 -256 -148 -310 -163 -150 -41 -377 -168 -485 -272 -490 -468 -225
-1458 486 -1815 182 -92 314 -125 497 -124 82 0 149 6 182 15 52 15 52 15 58
-21 16 -102 35 -330 35 -432 0 -117 0 -117 -39 -152 -21 -19 -45 -38 -53 -43
-25 -15 -48 -57 -49 -89 0 -44 -32 -158 -52 -188 -29 -44 -41 -116 -28 -164
24 -88 103 -142 266 -182 102 -25 115 -32 205 -112 119 -104 207 -131 425
-133 119 -1 151 2 212 22 133 42 207 122 200 219 -6 86 -35 117 -181 198 -70
39 -139 80 -153 93 -14 12 -31 22 -37 22 -5 0 -22 11 -36 25 -14 14 -47 44
-73 67 -45 39 -48 44 -42 79 6 33 3 40 -19 54 -14 10 -35 15 -46 12 -23 -6
-34 10 -56 84 -8 28 -22 53 -30 56 -11 4 -14 28 -14 114 0 60 2 109 4 109 2 0
17 -7 32 -15 39 -20 180 -20 251 1 78 23 127 13 252 -48 106 -53 106 -53 227
-56 240 -7 354 53 354 188 0 69 -27 113 -89 144 -49 25 -261 96 -285 96 -15 0
-52 23 -117 73 -20 15 -40 27 -46 27 -17 0 -40 33 -48 67 -8 38 -41 83 -61 83
-33 0 -13 271 46 605 17 94 35 244 41 335 18 287 -40 243 444 331 231 42 428
79 438 84 10 4 106 106 214 227 178 200 196 223 200 262 5 37 1 47 -27 80 -32
36 -32 36 38 110 334 352 190 1014 -271 1245 -150 75 -335 101 -479 67 -56
-13 -56 -13 -61 13 -3 14 5 132 18 261 13 129 33 341 45 470 11 129 30 300 42
380 16 105 22 192 23 315 0 159 -2 178 -32 295 -18 70 -34 164 -37 215 -10
169 -42 231 -168 326 -46 34 -99 78 -120 97 -36 34 -36 34 -23 79 8 25 20 52
28 61 7 10 19 32 27 50 7 17 18 32 24 33 6 0 50 0 98 -1 81 -1 88 0 118 27 25
23 31 37 34 76 2 41 7 52 34 74 23 17 32 33 32 54 0 16 9 38 21 50 13 13 19
30 17 51 -3 28 2 34 42 58 63 37 65 72 11 196 -48 109 -48 104 -16 134 23 21
25 31 25 104 0 81 0 81 41 104 66 38 90 142 54 229 -8 19 -15 43 -15 52 0 9
-14 32 -30 51 -16 19 -30 39 -30 43 0 23 -47 70 -89 91 -25 13 -59 30 -76 39
-57 31 -160 69 -240 89 -189 46 -218 47 -347 12z m135 -34 c-32 -19 -46 -60
-21 -60 6 0 2 -10 -10 -23 -12 -13 -22 -30 -22 -39 0 -9 -7 -21 -15 -28 -17
-14 -20 -50 -5 -50 5 0 30 15 55 34 24 19 58 37 75 41 38 8 40 35 3 35 -24 1
-25 2 -10 11 31 18 21 42 -15 35 -33 -6 -33 -6 2 17 48 31 137 27 222 -8 35
-15 83 -33 108 -42 25 -9 56 -23 70 -32 14 -9 42 -24 63 -34 21 -9 40 -25 44
-34 3 -10 25 -40 48 -68 23 -27 44 -61 48 -75 3 -14 12 -43 20 -64 18 -48 12
-76 -14 -69 -16 5 -19 0 -19 -30 0 -19 -7 -40 -15 -47 -13 -11 -15 -7 -15 29
0 30 -4 41 -15 41 -10 0 -15 10 -15 30 0 32 -29 44 -31 13 0 -11 -3 -13 -6 -5
-9 22 -33 12 -46 -20 -8 -18 -22 -40 -32 -48 -18 -14 -18 -14 -2 10 21 30 22
60 3 60 -16 0 -44 -39 -68 -95 -17 -40 -17 -40 -17 -7 -1 25 -5 32 -21 32 -11
0 -20 -6 -20 -13 0 -7 -6 -21 -13 -32 -13 -16 -14 -15 -9 13 6 44 -20 42 -48
-3 -12 -19 -25 -35 -30 -35 -4 0 -10 -13 -13 -29 -5 -22 -19 -36 -60 -59 -67
-38 -91 -75 -115 -178 -22 -92 -46 -111 -58 -47 -10 55 -25 80 -97 156 -55 58
-68 67 -98 67 -90 0 -132 -100 -94 -226 16 -53 19 -117 8 -202 -5 -45 -10 -55
-34 -67 -15 -8 -32 -15 -37 -15 -11 0 -78 132 -88 175 -4 17 -20 60 -35 96
-25 62 -59 189 -59 223 0 9 7 12 19 9 18 -5 20 1 20 72 0 73 -1 77 -21 72 -20
-6 -20 -3 -16 81 5 115 23 148 23 44 0 -82 18 -142 43 -142 12 0 13 7 6 38 -5
20 -8 75 -7 120 0 79 -1 83 -20 78 -17 -4 -15 0 8 24 16 17 36 32 46 35 10 3
23 21 29 39 12 39 82 113 73 77 -10 -38 30 -24 64 24 35 46 97 77 197 96 27 5
52 11 54 14 3 3 19 5 36 5 31 0 31 0 -1 -20z m558 -527 c2 -72 -3 -138 -12
-141 -13 -5 -11 -60 2 -64 7 -2 5 -9 -5 -17 -14 -11 -16 -11 -16 2 0 19 -51
37 -107 37 -53 0 -113 -23 -113 -44 0 -18 12 -20 60 -6 27 7 48 5 90 -8 51
-16 55 -19 52 -44 -2 -16 14 -66 37 -120 45 -102 46 -109 30 -125 -8 -8 -16
-9 -29 -1 -11 7 -26 8 -46 1 -31 -10 -46 -43 -20 -43 17 0 19 -4 10 -37 -6
-22 -66 -53 -103 -53 -10 0 -22 -7 -25 -16 -13 -33 -6 -41 33 -41 41 0 61 -8
61 -24 0 -5 -11 -7 -24 -3 -23 5 -25 3 -31 -43 -13 -103 -16 -113 -41 -129
-38 -25 -159 -15 -215 18 -49 29 -131 108 -157 151 -17 28 -52 37 -52 13 0
-36 83 -133 152 -178 44 -29 46 -32 35 -57 -6 -14 -19 -35 -28 -46 -24 -28
-48 -117 -56 -202 -5 -65 -4 -73 11 -73 28 0 12 -25 -17 -28 -68 -8 -215 86
-392 250 -111 102 -111 102 -80 164 17 34 39 98 49 141 19 80 19 80 71 106 53
26 53 26 60 116 7 91 7 91 37 65 17 -14 44 -28 59 -31 27 -5 29 -8 29 -58 0
-69 16 -115 41 -115 23 0 23 2 4 64 -8 27 -15 62 -15 78 0 15 -6 28 -12 28 -7
0 -5 5 5 11 18 11 24 49 6 49 -6 0 -18 -4 -28 -10 -14 -7 -26 -3 -51 15 -42
31 -64 62 -48 67 9 3 8 19 -5 62 -20 72 -6 120 36 128 22 4 29 0 42 -27 20
-43 19 -48 -7 -60 -28 -12 -39 -65 -14 -65 9 0 16 -9 16 -21 0 -29 18 -59 35
-59 19 0 19 23 1 75 -16 45 -12 65 14 65 26 0 41 -24 55 -83 10 -46 15 -52 39
-55 63 -8 71 1 94 95 24 97 42 128 92 158 18 11 47 34 64 51 39 38 76 50 69
23 -4 -16 0 -19 27 -19 30 0 48 13 106 83 8 10 28 20 44 24 16 3 35 12 41 19
19 23 39 16 40 -13z m-1114 -90 c-2 -16 -4 -3 -4 27 0 30 2 43 4 28 2 -16 2
-40 0 -55z m63 -920 c14 -9 66 -55 115 -103 213 -206 400 -296 472 -228 15 14
23 33 23 55 0 34 0 34 79 -26 44 -33 93 -77 109 -97 47 -56 89 -224 57 -224
-21 0 -19 -14 15 -114 77 -228 86 -355 46 -647 -14 -101 -33 -265 -41 -364
-72 -826 -95 -969 -193 -1222 -22 -57 -43 -117 -47 -135 -25 -122 -162 -234
-330 -271 -169 -38 -476 -47 -596 -17 -51 12 -48 -3 -29 150 6 47 28 180 50
295 56 306 60 336 60 528 0 174 0 174 37 253 22 49 44 119 57 186 18 92 23
108 41 110 14 2 23 15 30 43 8 31 29 58 92 119 157 149 307 376 249 376 -8 0
-48 -51 -89 -112 -76 -113 -209 -268 -221 -257 -14 14 25 225 63 336 52 153
81 300 81 407 0 79 -2 86 -20 86 -18 0 -20 -7 -20 -81 0 -102 -29 -244 -79
-391 -24 -69 -46 -157 -55 -223 -18 -132 -41 -253 -48 -261 -3 -2 -68 11 -144
30 -180 45 -300 66 -384 66 -85 0 -89 5 -80 100 20 196 32 485 24 567 -20 202
-2 309 86 498 68 148 237 345 400 465 58 43 114 87 125 99 24 25 33 26 65 4z
m-500 -1783 c36 -6 132 -27 213 -47 149 -37 149 -37 142 -83 -12 -83 -36 -163
-70 -229 -33 -66 -33 -66 -37 -291 -5 -218 -7 -233 -56 -500 -56 -302 -71
-422 -74 -611 -2 -125 -2 -125 35 -185 93 -154 123 -275 70 -282 -20 -3 -22 0
-17 27 6 26 3 31 -13 31 -29 0 -63 -75 -63 -139 0 -28 -3 -51 -6 -51 -3 0 -27
18 -53 39 -44 37 -53 52 -77 139 -8 28 -33 11 -36 -25 -3 -38 -3 -38 -30 -11
-19 18 -28 37 -28 58 0 38 -33 40 -38 2 -4 -24 -4 -25 -26 -16 -10 4 -16 18
-16 35 0 26 -3 29 -31 29 -30 0 -31 1 -24 36 12 68 57 174 72 174 12 0 14 7 8
33 -4 17 -7 41 -7 52 0 11 4 98 8 194 5 125 3 210 -7 305 -26 241 -9 631 37
864 16 80 16 88 -4 220 -41 261 -42 242 14 242 27 0 78 -5 114 -10z m-199
-702 c-19 -183 -24 -388 -12 -508 27 -270 27 -274 3 -261 -37 20 -119 107
-141 149 -53 105 -3 430 89 575 16 26 30 59 30 73 0 25 30 87 38 79 2 -2 -1
-50 -7 -107z m1966 -135 c195 -71 354 -215 452 -410 99 -199 106 -457 16 -648
-45 -96 -71 -127 -38 -45 76 190 67 454 -21 654 -72 162 -221 319 -382 399
-59 30 -190 66 -243 68 -20 1 -49 5 -66 10 -19 5 12 7 85 5 97 -3 128 -8 197
-33z m-183 -27 c272 -53 490 -251 588 -536 31 -90 32 -102 32 -240 0 -164 -19
-241 -87 -362 -70 -123 -69 -122 -132 -55 -56 58 -56 58 -25 100 72 101 101
309 66 476 -62 292 -331 518 -595 499 -59 -4 -59 -4 -65 31 -12 77 -9 89 27
94 69 8 118 6 191 -7z m-234 -206 c10 -36 30 -98 45 -139 23 -64 25 -75 12
-83 -10 -5 -18 -32 -22 -82 -4 -40 -10 -77 -14 -82 -8 -12 -78 -64 -85 -64
-15 0 -3 42 20 69 24 29 25 34 13 64 -32 76 -88 136 -89 95 -1 -7 -7 -2 -14
12 -12 21 -12 30 1 60 26 58 82 235 90 281 7 44 7 44 16 -11 5 -30 17 -84 27
-120z m215 35 c300 -79 504 -446 420 -760 -16 -60 -73 -167 -87 -163 -4 2 -44
40 -90 85 -84 81 -84 81 -75 175 13 148 6 218 -26 265 -41 59 -81 78 -233 108
-16 4 -20 11 -17 27 4 25 -12 88 -50 192 -14 39 -24 74 -21 78 8 13 116 9 179
-7z m-360 -305 c3 -5 13 -10 22 -10 9 0 25 -7 35 -17 19 -17 25 -53 8 -53 -5
0 -10 5 -10 10 0 6 -13 10 -29 10 -44 0 -61 10 -61 34 0 33 21 49 35 26z m307
-35 c91 -20 142 -52 170 -110 21 -43 22 -50 11 -189 l-11 -144 214 -214 c138
-138 214 -221 214 -234 0 -21 -374 -445 -408 -463 -10 -5 -86 -21 -168 -36
-82 -14 -183 -32 -224 -40 -41 -8 -167 -30 -280 -50 -251 -44 -466 -83 -501
-91 -23 -4 -28 -1 -37 25 -11 31 -10 31 22 31 33 0 33 0 39 60 4 33 10 122 13
198 10 208 11 207 -238 268 -158 38 -158 38 -158 70 0 28 3 31 23 27 12 -3 89
-23 171 -44 270 -71 284 -95 255 -437 -7 -73 -9 -135 -5 -139 3 -3 21 1 38 10
18 9 132 32 253 52 481 80 777 135 792 147 46 38 353 389 353 403 0 20 -406
445 -425 445 -8 0 -15 -5 -17 -11 -3 -8 -72 3 -220 35 -118 25 -218 46 -222
46 -3 0 -6 11 -6 25 0 15 6 25 15 25 36 0 411 -83 416 -92 28 -45 49 55 49
235 0 92 -25 119 -127 137 -39 7 -76 16 -82 19 -9 6 -5 51 5 51 1 0 36 -7 76
-15z m-1733 -141 c31 -20 40 -32 36 -48 -2 -11 -7 -61 -10 -111 -8 -124 -13
-140 -34 -122 -9 8 -23 16 -31 19 -24 9 -54 144 -74 330 -2 27 -2 27 35 -7 21
-19 56 -46 78 -61z m1459 45 c2 -23 2 -23 -13 -5 -18 24 -20 39 -2 34 6 -3 13
-15 15 -29z m-111 -111 c-7 -168 -28 -328 -78 -592 -21 -115 -39 -221 -39
-236 0 -31 -21 -53 -73 -75 -34 -14 -97 -21 -97 -10 0 3 18 85 39 183 22 97
49 227 60 287 14 78 31 130 56 178 39 76 44 100 18 95 -42 -8 -83 -109 -123
-305 -21 -103 -46 -219 -55 -258 -21 -90 -72 -346 -81 -408 -8 -58 -28 -84
-73 -97 -31 -9 -33 -8 -27 13 3 12 9 90 12 174 12 261 -22 302 -307 368 -76
18 -76 18 -72 79 5 54 1 70 -32 141 -20 44 -49 100 -65 125 -32 50 -35 64 -32
191 2 86 2 86 75 72 90 -18 389 -12 522 11 165 28 243 64 326 150 24 25 46 46
48 46 2 0 1 -60 -2 -132z m381 111 c75 -16 95 -42 93 -126 -2 -119 -10 -156
-34 -149 -11 3 -105 22 -208 43 l-189 38 0 94 c0 94 0 94 20 68 36 -46 127
-75 145 -47 3 6 19 10 34 10 28 0 62 29 74 63 7 20 3 20 65 6z m-93 -384 c220
-47 220 -47 333 -158 62 -62 144 -146 182 -188 l69 -76 -165 -184 c-92 -101
-168 -186 -170 -188 -7 -7 -744 -135 -749 -129 -6 6 22 183 35 223 6 19 17 35
25 35 29 0 75 57 75 94 0 20 14 104 30 188 25 128 70 402 70 432 0 4 10 6 23
3 12 -3 121 -27 242 -52z m-1674 11 c4 -5 -308 -203 -362 -232 -15 -8 -41 -14
-56 -14 -21 0 25 32 187 130 118 71 218 127 221 125 4 -3 8 -7 10 -9z m23 -85
c-17 -42 -25 -46 -74 -32 -24 7 -23 9 29 44 30 20 56 35 58 33 2 -2 -4 -22
-13 -45z m-76 -72 c49 -12 50 -12 40 -40 -12 -34 -7 -33 -103 -12 -82 18 -89
25 -47 47 33 19 47 19 110 5z m-98 -89 c41 -11 59 -17 40 -14 -19 3 -63 8 -97
11 -35 3 -63 10 -63 14 0 14 38 10 120 -11z m-45 -45 c121 -19 182 -39 289
-91 416 -202 711 -703 682 -1155 -14 -228 -110 -454 -246 -584 -31 -30 -31
-30 -5 16 77 139 109 305 102 529 -11 357 -140 639 -412 898 -231 221 -484
333 -762 336 -132 1 -132 1 -80 19 124 43 290 55 432 32z m-150 -115 c396
-105 748 -447 879 -853 100 -309 66 -654 -88 -885 -153 -231 -418 -344 -696
-298 -496 81 -913 489 -1041 1016 -29 123 -32 349 -5 450 87 328 300 533 614
590 75 14 248 3 337 -20z m935 -160 c209 -53 205 -49 196 -224 -10 -193 -14
-216 -40 -216 -16 0 -28 16 -51 67 -40 89 -129 223 -208 311 -40 44 -64 79
-60 88 3 8 6 14 7 14 0 0 71 -18 156 -40z m563 -212 c-7 -46 -16 -97 -19 -115
-6 -40 -28 -63 -60 -63 -28 0 -29 8 -14 96 31 172 27 164 69 164 37 0 37 0 24
-82z m-75 -477 c-6 -111 -21 -238 -48 -395 -49 -288 -62 -419 -59 -567 4 -134
1 -139 -76 -175 -62 -30 -123 -30 -177 -3 -41 21 -41 21 -35 207 5 187 5 187
40 262 36 77 71 191 82 270 10 68 22 105 76 222 27 58 63 156 80 216 32 110
32 110 78 119 25 5 46 9 47 9 0 -1 -4 -75 -8 -165z m-138 132 c-1 -29 -44
-163 -76 -237 -41 -95 -51 -95 -53 1 -1 24 -8 79 -17 123 -9 45 -14 84 -10 87
5 5 89 23 149 32 4 0 7 -2 7 -6z m-330 -1113 c-16 -80 -38 -188 -50 -240 -32
-153 -42 -244 -49 -440 -6 -185 -6 -185 -51 -210 -39 -21 -58 -25 -133 -25
-85 0 -90 1 -113 28 -23 27 -24 35 -24 170 0 127 -17 350 -36 463 -6 42 -6 42
57 74 117 58 416 304 420 344 1 6 3 4 5 -4 3 -8 -9 -80 -26 -160z m444 -167
c32 -97 1 -145 -58 -90 -33 30 -33 30 1 98 32 64 34 64 57 -8z m-254 -52 c30
0 72 6 93 13 37 14 37 13 37 -13 0 -22 -10 -31 -68 -60 -98 -49 -140 -38 -197
51 -25 40 -11 50 38 28 25 -12 64 -19 97 -19z m-160 -51 c43 -84 137 -102 245
-45 68 35 115 39 115 9 0 -19 69 -18 94 1 11 8 29 15 40 15 19 -1 19 -2 4 -11
-32 -18 -22 -42 13 -35 25 5 32 2 36 -14 4 -17 11 -19 48 -13 41 5 43 4 38
-16 -4 -17 -1 -21 20 -21 26 0 42 14 48 41 4 15 18 12 109 -22 137 -50 155
-64 154 -120 -1 -59 -32 -83 -125 -99 -86 -15 -191 -6 -269 21 -66 23 -80 24
-80 3 0 -8 20 -24 48 -37 56 -25 289 -37 357 -18 21 6 41 8 43 6 11 -11 -90
-44 -165 -55 -112 -15 -181 -1 -313 62 -123 58 -186 69 -271 45 -122 -34 -187
-30 -244 15 -26 20 -27 24 -21 85 13 130 11 127 66 72 33 -33 63 -52 96 -62
37 -11 45 -17 31 -22 -23 -9 -95 2 -131 20 -37 20 -46 19 -46 -5 0 -36 37 -45
225 -52 99 -4 197 -10 218 -14 33 -5 37 -4 37 14 0 28 -79 57 -198 71 -52 6
-113 21 -138 32 -42 20 -104 79 -104 99 0 6 -7 10 -16 10 -12 0 -14 7 -9 33
13 59 18 60 45 7z m-408 -681 c24 -6 77 -9 119 -7 76 5 76 5 71 -41 -5 -53
-12 -60 -98 -97 -63 -26 -66 -27 -99 -11 -54 26 -100 144 -80 207 7 21 8 21
26 -8 13 -22 31 -34 61 -43z m-111 -91 c21 -78 92 -127 166 -113 19 3 64 20
98 37 61 30 64 31 95 16 19 -9 28 -18 21 -22 -24 -15 -11 -36 23 -36 30 0 33
-2 28 -25 -6 -33 20 -34 45 -2 10 13 24 22 30 20 9 -3 6 -11 -7 -26 -22 -23
-27 -57 -8 -57 7 0 23 12 36 28 18 20 22 22 16 7 -16 -46 -17 -75 0 -75 8 0
20 9 26 20 17 31 42 26 30 -6 -15 -38 -12 -54 8 -54 19 0 42 54 42 98 0 11 7
22 15 26 8 3 15 1 15 -5 0 -5 15 -16 33 -24 17 -8 25 -14 17 -15 -18 0 -100
-80 -100 -97 0 -24 34 -13 72 24 21 20 38 43 38 50 0 9 6 10 28 0 58 -26 238
-131 264 -154 26 -25 26 -25 -5 -72 -18 -25 -37 -55 -43 -66 -39 -70 -247 -94
-422 -49 -95 25 -173 68 -266 148 -48 42 -101 83 -117 92 -16 8 -29 18 -29 23
0 4 -25 36 -56 72 -31 35 -68 88 -82 117 -26 51 -62 72 -62 36 0 -20 50 -104
96 -161 34 -41 34 -41 -8 -25 -99 39 -152 130 -129 220 7 26 16 68 20 94 4 26
16 57 27 69 19 21 19 21 27 -27 4 -27 12 -66 18 -86z m452 90 c16 -37 16 -37
-19 -57 -19 -11 -38 -30 -42 -41 -7 -19 -9 -19 -30 -4 -36 25 -28 57 25 103
26 22 48 39 49 38 1 -1 9 -19 17 -39z m31 -103 c-14 -10 -21 -10 -26 -2 -4 7
2 17 15 24 28 15 37 -3 11 -22z m130 -132 c-13 -10 -20 -10 -23 -2 -4 14 19
30 33 22 5 -3 1 -12 -10 -20z m-699 -91 c21 -24 67 -53 150 -92 77 -37 140
-75 175 -106 187 -165 280 -199 532 -192 163 3 206 17 245 78 39 62 55 81 60
76 23 -22 -54 -124 -119 -157 -93 -47 -251 -61 -400 -35 -106 19 -172 52 -253
125 -84 77 -102 86 -212 111 -181 42 -273 126 -243 223 11 38 14 40 24 23 6
-11 25 -35 41 -54z"/>
<path d="M5400 9848 c-22 -49 -26 -108 -7 -108 11 0 38 64 54 128 10 41 -26
26 -47 -20z"/>
<path d="M5880 9826 c0 -7 14 -16 30 -20 17 -3 44 -9 60 -12 38 -8 42 17 5 34
-37 17 -95 15 -95 -2z"/>
<path d="M5703 9790 c-34 -20 -44 -50 -18 -50 8 0 29 9 47 20 19 12 51 20 76
20 31 0 42 4 42 15 0 24 -106 20 -147 -5z"/>
<path d="M5304 9735 c-4 -14 -3 -29 0 -33 11 -11 41 14 44 37 5 32 -36 29 -44
-4z"/>
<path d="M5230 9694 c-15 -39 -13 -84 4 -84 19 0 22 6 30 63 6 39 5 47 -9 47
-8 0 -20 -12 -25 -26z"/>
<path d="M5803 9705 c-42 -18 -46 -51 -5 -40 15 4 51 9 80 12 33 3 52 9 52 18
0 26 -76 32 -127 10z"/>
<path d="M6010 9685 c0 -8 9 -15 19 -15 30 0 51 -11 51 -26 0 -8 6 -14 14 -14
7 0 28 -3 45 -6 46 -9 41 20 -9 51 -46 29 -120 35 -120 10z"/>
<path d="M5170 9630 c0 -52 3 -60 18 -60 16 0 19 8 18 60 -1 50 -4 60 -18 60
-15 0 -18 -9 -18 -60z"/>
<path d="M5963 9615 c-22 -9 -33 -21 -33 -35 0 -24 22 -26 41 -4 10 12 24 15
61 10 40 -6 48 -4 48 9 0 32 -65 43 -117 20z"/>
<path d="M5110 9515 c0 -14 7 -28 15 -32 22 -8 28 2 21 32 -8 33 -36 33 -36 0z"/>
<path d="M5933 9153 c-15 -3 -23 -12 -23 -25 0 -15 5 -19 20 -15 13 3 20 0 20
-9 0 -17 37 -37 56 -30 8 3 14 12 14 21 0 8 7 15 16 15 10 0 14 7 12 23 -3 19
-9 22 -48 23 -25 1 -55 0 -67 -3z"/>
<path d="M5060 8346 c0 -36 280 -276 322 -276 33 0 19 25 -34 60 -28 19 -98
79 -155 133 -99 92 -133 114 -133 83z"/>
<path d="M4532 6193 c3 -74 6 -88 21 -91 15 -3 17 5 17 56 0 79 -9 122 -27
122 -11 0 -13 -17 -11 -87z"/>
<path d="M3666 3984 c-160 -39 -337 -187 -420 -355 -195 -390 79 -947 524
-1064 95 -26 247 -24 327 4 232 79 371 199 434 375 33 94 39 313 10 427 -105
422 -505 703 -875 613z m350 -63 c469 -182 671 -838 355 -1146 -41 -39 -41
-39 -6 25 52 98 68 185 63 348 -4 121 -8 147 -35 224 -118 338 -416 555 -732
535 -78 -5 -83 -4 -59 9 104 54 282 57 414 5z m-127 -85 c183 -64 327 -198
422 -391 105 -215 111 -422 19 -612 -119 -243 -407 -319 -669 -177 -25 14 -37
22 -26 19 111 -37 291 -28 387 20 221 109 295 406 166 675 -81 169 -250 302
-419 330 -188 32 -380 -62 -458 -223 -46 -95 -62 -258 -36 -377 3 -14 -4 -1
-15 29 -92 247 -14 524 186 662 121 83 288 100 443 45z m-128 -176 c232 -43
431 -279 446 -531 11 -167 -65 -319 -196 -392 -32 -19 -32 -19 2 27 107 140
108 370 1 547 -47 78 -140 164 -221 202 -63 30 -75 32 -173 32 -127 0 -179
-22 -255 -107 l-48 -53 32 63 c81 161 242 244 412 212z m16 -190 c221 -109
342 -415 242 -612 -97 -190 -295 -217 -494 -67 -72 55 -79 68 -22 44 74 -31
136 -16 232 55 63 46 85 86 85 151 0 169 -153 278 -288 206 -120 -64 -170
-139 -159 -237 5 -45 5 -45 -21 10 -51 109 -41 259 24 357 86 132 247 169 401
93z m-79 -269 c17 -12 43 -46 58 -76 34 -71 30 -124 -15 -169 -31 -31 -31 -31
-31 24 -1 91 -59 181 -139 211 -26 10 -26 11 -6 26 27 20 94 12 133 -16z
m-128 -61 c122 -62 131 -254 14 -276 -90 -17 -195 118 -164 211 13 39 62 85
91 85 11 0 38 -9 59 -20z"/>
</g></svg>
