<svg xmlns="http://www.w3.org/2000/svg" viewBox="0 0 1024 1024" role="img" aria-labelledby="t"><title id="t">Line drawing: peter pan</title><g transform="translate(0.000000,1024.000000) scale(0.100000,-0.100000)"
fill="currentColor" stroke="none">
<path d="M4737 9996 c-23 -16 -38 -21 -45 -14 -28 28 -122 -29 -122 -74 0 -11
-14 -24 -36 -33 -37 -15 -37 -15 -31 -88 6 -77 2 -79 -11 -6 -9 52 -32 59 -47
13 -6 -17 -16 -38 -22 -46 -8 -9 -14 -53 -15 -110 -3 -95 -3 -95 -32 -108 -47
-21 -111 -92 -123 -136 -6 -21 -23 -84 -37 -138 -15 -54 -35 -111 -45 -125
-35 -50 -112 -213 -141 -301 -42 -123 -40 -146 20 -265 49 -96 57 -124 87
-301 2 -17 -2 -52 -11 -79 -21 -60 -8 -142 35 -226 28 -56 90 -129 109 -129 5
0 11 -9 15 -19 3 -10 21 -34 40 -52 46 -45 49 -93 7 -96 -17 -1 -36 -12 -52
-33 -14 -18 -43 -54 -66 -81 -27 -32 -46 -70 -58 -109 -15 -56 -25 -69 -130
-173 -109 -109 -115 -116 -179 -247 -134 -270 -139 -352 -98 -1395 15 -372 24
-466 57 -610 20 -86 38 -109 60 -80 25 32 71 126 84 173 15 49 16 49 61 19 32
-21 34 -27 37 -85 3 -61 2 -64 -36 -108 -44 -49 -61 -102 -106 -324 -63 -312
-69 -378 -73 -793 -5 -415 -5 -411 44 -365 28 26 28 28 3 -119 -28 -164 -33
-175 -101 -234 -51 -44 -62 -60 -76 -109 -11 -41 -33 -79 -75 -131 -102 -128
-200 -341 -253 -547 -13 -53 -33 -123 -44 -155 -11 -32 -26 -97 -32 -144 -9
-58 -20 -96 -36 -120 -33 -49 -67 -118 -94 -192 -15 -44 -35 -76 -62 -100 -58
-54 -68 -80 -66 -168 1 -59 -4 -91 -20 -132 -12 -30 -20 -60 -17 -68 3 -7 -10
-34 -29 -59 -44 -57 -65 -128 -65 -219 0 -51 -7 -92 -26 -146 -30 -85 -37
-209 -15 -273 19 -54 73 -110 131 -135 89 -38 388 -39 498 0 65 22 82 144 37
254 -36 85 -41 133 -20 195 14 42 16 70 10 141 -6 89 -6 89 41 146 62 76 122
207 144 315 10 47 21 97 25 109 5 13 76 114 158 224 83 110 169 229 193 265
50 77 356 687 408 813 20 49 54 112 75 140 48 63 126 198 193 332 28 55 52
102 54 104 10 11 39 -32 88 -136 68 -141 125 -227 234 -356 46 -54 120 -149
164 -210 45 -62 98 -131 119 -155 20 -23 55 -78 77 -120 23 -43 72 -120 111
-172 40 -53 85 -128 102 -170 50 -119 77 -168 154 -280 39 -58 91 -138 113
-178 40 -70 41 -75 32 -119 -31 -136 104 -223 347 -223 59 0 65 -2 112 -44
130 -116 344 -166 500 -117 165 51 213 126 157 246 -32 70 -71 105 -173 158
-48 25 -137 82 -198 127 -60 46 -134 94 -162 108 -53 26 -53 26 -53 92 -1 178
-73 332 -150 317 -16 -4 -30 -5 -31 -4 -1 1 -5 74 -9 162 -11 217 -18 237
-147 415 -21 30 -24 42 -19 84 3 31 0 60 -9 83 -8 20 -15 52 -15 73 0 71 -20
145 -51 188 -28 39 -33 55 -44 165 -7 70 -23 153 -37 194 -24 71 -24 71 10 66
33 -6 33 -6 28 28 -3 19 -8 62 -11 96 -7 77 -28 159 -60 241 -34 85 -136 512
-165 687 -6 39 -28 113 -49 165 -38 95 -38 95 -10 128 16 17 35 58 44 90 9 31
25 80 35 107 25 63 25 129 2 175 -18 35 -18 35 458 515 566 570 908 928 959
1005 39 57 121 203 121 214 0 16 -27 -1 -156 -98 -147 -110 -177 -138 -405
-391 -502 -556 -656 -723 -931 -1016 -129 -136 -129 -136 -162 -103 -38 38
-70 43 -117 18 -47 -24 -60 -7 -42 59 29 108 10 420 -31 521 -11 27 -9 38 20
105 56 127 73 346 31 388 -14 14 -14 19 -1 44 25 50 46 162 47 260 2 110 -6
127 -114 244 -31 33 -71 90 -89 127 -46 95 -114 175 -193 227 -68 45 -68 45
-35 70 118 90 167 202 168 377 0 84 20 191 49 266 6 15 13 58 17 95 7 75 13
90 49 129 15 16 25 39 25 56 0 40 17 68 41 68 32 0 32 24 0 87 -39 78 -75 120
-117 138 -35 15 -37 19 -34 93 1 36 -2 44 -19 49 -12 3 -21 13 -21 24 0 14 -9
21 -30 26 -21 4 -40 19 -59 47 -41 59 -173 181 -223 207 -24 12 -65 39 -92 60
-27 22 -67 44 -90 51 -70 20 -114 57 -146 124 -16 33 -39 69 -51 79 -21 20
-21 20 3 26 12 4 50 8 83 8 33 1 70 7 83 15 44 24 4 35 -134 38 -129 3 -129 3
-69 17 33 8 86 14 117 13 85 -3 86 15 6 61 -28 16 -72 31 -105 35 -58 7 -58 7
42 58 55 29 118 55 140 59 73 13 84 42 35 89 -26 24 -37 28 -66 23 -31 -5 -35
-4 -29 11 25 59 11 68 -48 28z m43 -5 c0 -5 -16 -31 -36 -56 -43 -57 -38 -67
13 -27 53 42 79 48 93 22 6 -11 17 -20 25 -20 8 0 15 -6 15 -13 0 -21 -22 -37
-49 -37 -35 0 -222 -95 -255 -129 -26 -27 -26 -27 54 -26 43 0 84 -5 90 -11 7
-7 -7 -9 -47 -7 -42 3 -67 -1 -92 -14 -36 -19 -58 -52 -27 -40 8 3 39 9 68 12
53 5 53 5 5 -9 -52 -15 -80 -33 -71 -47 3 -5 66 -9 141 -9 75 0 133 -3 130 -6
-4 -4 -82 -8 -174 -9 -93 -1 -180 -6 -194 -9 -22 -6 -27 -4 -33 16 -9 35 -7
130 3 124 5 -3 12 21 15 54 7 64 26 74 26 14 0 -45 20 -124 31 -124 5 0 9 47
9 105 0 104 0 106 25 115 15 6 32 24 40 43 17 42 33 55 73 63 28 6 32 4 32
-15 0 -20 3 -19 34 13 32 35 56 46 56 27z m-45 -325 c69 -16 39 -20 -66 -9
-44 4 -57 9 -44 14 28 11 42 10 110 -5z m-104 -139 c36 -19 50 -35 76 -87 17
-36 45 -77 62 -92 31 -28 31 -28 -27 -28 -70 0 -152 -10 -152 -19 0 -3 57 -4
127 -2 145 4 182 -4 238 -52 22 -18 65 -47 95 -63 52 -28 220 -182 220 -202 0
-26 -109 -28 -175 -3 -27 10 -92 25 -143 32 -92 13 -93 13 -147 -14 -159 -78
-393 -245 -497 -355 -84 -89 -117 -146 -144 -247 -21 -80 -21 -80 -29 -30 -12
88 -26 128 -71 212 -53 97 -55 131 -18 241 29 89 91 224 133 291 16 27 44 105
65 181 30 111 42 141 69 168 79 83 230 115 318 69z m370 -543 c46 -8 96 -22
113 -31 22 -11 44 -14 89 -8 66 7 147 -10 147 -32 0 -7 9 -18 20 -25 16 -10
20 -24 20 -62 0 -50 19 -86 45 -86 24 0 72 -56 104 -118 36 -70 36 -72 17 -72
-23 0 -56 -50 -56 -85 0 -20 -8 -39 -21 -51 -30 -26 -49 -76 -49 -126 0 -24
-9 -72 -19 -108 -11 -36 -24 -78 -28 -95 -4 -20 -9 16 -14 109 -9 177 -17 244
-32 253 -12 8 -43 97 -49 138 -2 12 -12 21 -26 23 -13 2 -26 10 -29 18 -4 11
-16 13 -55 8 -49 -7 -50 -6 -39 15 17 31 4 44 -25 24 -14 -9 -35 -17 -47 -19
-12 -2 -35 -7 -50 -10 -27 -6 -27 -6 -16 20 16 35 6 43 -22 17 -12 -11 -38
-26 -58 -32 -20 -6 -43 -17 -51 -24 -34 -28 -38 -26 -33 15 11 78 -64 49 -82
-32 -5 -20 -19 -34 -48 -48 -23 -11 -60 -31 -82 -45 -22 -14 -53 -25 -68 -25
-37 0 -88 -36 -80 -56 3 -9 -5 -27 -20 -42 -44 -48 -61 -92 -67 -182 -6 -102
-19 -111 -67 -46 -36 49 -110 91 -143 81 -27 -8 -27 32 0 137 27 108 50 148
138 240 118 123 249 222 442 330 96 54 113 56 241 32z m-185 -359 c-8 -52 4
-58 46 -25 35 27 108 52 101 34 -6 -16 32 -19 69 -5 61 22 76 22 70 -1 -5 -20
-3 -21 51 -15 69 7 117 -12 117 -46 0 -12 6 -33 13 -47 8 -14 17 -41 20 -59 4
-17 13 -39 21 -46 20 -20 30 -167 31 -425 0 -204 -1 -218 -24 -275 -60 -149
-281 -286 -412 -256 -180 41 -357 120 -420 188 -57 61 -122 170 -122 206 0 32
-8 34 -25 7 -23 -37 -70 -26 -123 29 -103 107 -131 315 -44 337 34 8 97 -30
135 -82 51 -71 99 -48 86 42 -7 57 16 132 60 190 19 25 33 52 30 60 -5 13 42
46 61 43 27 -4 55 4 89 28 21 14 55 32 73 39 27 9 38 21 48 50 12 34 39 74 51
74 2 0 1 -20 -2 -45z m-456 -837 c-1 -43 -1 -43 -32 -9 -29 32 -30 35 -12 42
38 15 44 10 44 -33z m53 -56 c76 -122 166 -183 379 -252 139 -45 193 -49 270
-20 28 11 53 18 55 16 2 -2 -5 -41 -17 -86 -26 -101 -37 -210 -22 -210 6 0 12
7 14 16 4 23 71 -92 110 -191 30 -73 33 -92 36 -210 3 -112 -7 -237 -25 -312
-4 -19 -26 6 -128 145 -68 92 -167 217 -220 277 -54 61 -124 149 -157 198 -32
48 -101 143 -153 211 -124 164 -135 182 -135 236 0 26 -8 58 -19 76 -14 23
-36 164 -25 164 0 0 17 -26 37 -58z m-38 -107 c18 -18 25 -35 25 -65 0 -60 17
-92 132 -245 57 -77 134 -183 170 -235 36 -52 94 -126 129 -164 63 -68 63 -68
24 -49 -59 30 -95 34 -161 18 -72 -17 -74 -18 -74 -5 0 6 -9 30 -21 54 -21 47
-37 56 -201 121 -65 26 -70 30 -167 155 -101 129 -101 129 -82 162 11 18 24
52 31 75 6 24 28 63 50 88 22 26 40 50 40 54 0 15 49 61 65 61 9 0 27 -11 40
-25z m865 -171 c59 -36 141 -134 181 -217 25 -52 60 -102 105 -149 92 -98 108
-138 100 -247 -8 -94 -29 -188 -53 -234 -9 -18 -11 -32 -5 -36 54 -36 40 -257
-26 -403 -26 -57 -27 -66 -16 -94 45 -109 63 -419 32 -524 -24 -79 -99 -147
-277 -253 -79 -47 -97 -54 -118 -46 -41 15 -73 10 -100 -17 -25 -26 -25 -26
-107 0 -124 40 -351 140 -351 155 0 7 -23 34 -52 60 -59 53 -191 204 -229 261
-22 33 -25 44 -16 67 155 410 154 410 160 646 2 133 0 197 -7 197 -7 0 -10
-55 -9 -162 2 -227 1 -228 -132 -595 -30 -80 -50 -115 -50 -84 0 12 -130 125
-136 118 -3 -2 23 -31 57 -63 34 -33 92 -100 130 -151 37 -51 110 -135 162
-187 51 -53 92 -96 90 -96 -2 0 -45 18 -96 39 -50 22 -107 41 -126 43 -34 3
-34 3 -51 -62 -34 -130 -152 -320 -199 -320 -9 0 -41 16 -71 35 -30 19 -60 35
-66 35 -7 0 -20 -24 -29 -52 -20 -61 -74 -168 -85 -168 -10 0 -36 100 -49 185
-15 98 -39 581 -57 1115 -7 221 7 445 36 555 11 44 48 136 82 205 56 113 71
134 157 222 l96 98 105 -133 c105 -132 105 -132 219 -179 131 -54 133 -56 159
-123 12 -33 23 -49 33 -46 114 33 127 35 166 23 63 -19 124 -73 226 -199 172
-215 215 -289 233 -402 4 -23 10 -41 15 -41 12 0 11 16 -6 80 -15 55 -15 55
17 82 17 15 29 31 25 34 -4 4 -18 -3 -32 -16 -27 -25 -27 -25 -43 5 -7 14 -6
41 5 95 10 49 16 136 17 250 1 175 1 175 -46 279 -26 58 -64 130 -84 160 -37
55 -37 55 -15 155 33 146 35 148 68 134 15 -7 44 -22 63 -34z m2053 -509 c-65
-109 -84 -130 -618 -685 -309 -320 -973 -980 -995 -988 -4 -2 -10 5 -14 14 -7
17 1 26 215 249 197 206 459 491 938 1020 242 268 284 310 398 397 71 53 129
95 131 93 2 -2 -23 -47 -55 -100z m-1568 -1485 c28 -30 28 -30 -28 -89 -64
-67 -61 -61 -45 -96 15 -33 22 -32 75 15 56 49 68 50 59 8 -7 -37 -30 -64 -70
-85 -38 -20 -72 -9 -96 30 -24 38 -25 65 -5 103 19 36 19 52 0 88 -9 16 -14
30 -13 31 44 34 88 32 123 -5z m-1293 -21 c26 -10 82 -36 125 -57 217 -109
592 -242 683 -242 42 0 61 18 223 208 55 63 95 102 107 102 38 0 53 -67 24
-108 -36 -52 18 -152 82 -152 73 0 124 52 128 129 4 79 46 32 46 -52 0 -26 -7
-61 -15 -77 -8 -16 -21 -56 -29 -89 -20 -87 -49 -127 -128 -178 -234 -151
-459 -169 -868 -68 -311 77 -457 127 -590 205 -70 41 -70 41 -30 91 49 62 102
171 126 256 19 70 18 70 116 32z m992 -110 c-49 -56 -99 -115 -112 -130 -24
-29 -24 -29 -63 -2 -48 35 -48 38 4 64 63 32 199 123 226 153 14 14 26 24 29
22 2 -3 -36 -51 -84 -107z m-206 -130 c85 -55 54 -61 -91 -18 -68 20 -69 21
-50 41 25 28 77 19 141 -23z m-981 -168 c50 -29 142 -70 205 -93 l113 -40
-108 7 c-102 5 -252 31 -339 57 -38 11 -38 11 -38 67 0 56 0 56 37 55 26 0 67
-17 130 -53z m-98 -96 c129 -33 223 -46 356 -50 116 -3 160 -9 259 -34 312
-81 500 -99 649 -62 108 27 213 70 274 111 25 17 47 29 50 27 19 -20 76 -194
93 -287 37 -201 128 -576 159 -653 45 -114 84 -337 59 -337 -21 0 -136 57
-225 112 -83 51 -152 69 -144 38 2 -8 4 -38 3 -67 0 -55 -4 -64 -113 -273 -30
-58 -76 -152 -101 -209 -54 -118 -38 -111 -183 -76 -110 27 -212 88 -369 219
-43 36 -84 66 -91 66 -6 0 -37 -51 -68 -112 -100 -202 -232 -408 -259 -408
-17 0 -102 87 -141 144 -55 81 -98 180 -142 321 -74 242 -100 319 -112 323
-19 6 -108 -89 -136 -144 -14 -27 -43 -69 -64 -94 -40 -44 -40 -44 -47 185 -7
242 2 450 29 645 22 158 94 508 112 545 28 54 64 97 79 91 8 -3 41 -12 73 -21z
m1646 -1178 c28 -17 82 -48 122 -69 68 -37 73 -42 93 -95 27 -74 38 -127 49
-246 6 -72 14 -106 28 -125 39 -53 53 -93 62 -174 5 -46 14 -96 20 -112 6 -16
9 -49 5 -75 -6 -49 -5 -51 91 -186 53 -75 66 -129 74 -306 7 -171 15 -193 58
-183 34 9 77 -35 104 -105 16 -42 23 -87 27 -177 5 -120 5 -120 -42 -161 -85
-75 -278 -163 -357 -163 -60 0 -85 17 -120 84 -17 33 -62 104 -99 156 -78 109
-125 193 -170 303 -19 45 -63 120 -107 180 -41 56 -90 132 -109 169 -18 36
-55 93 -82 125 -27 32 -78 99 -113 148 -35 50 -99 132 -142 183 -112 133 -177
226 -236 340 -28 55 -51 103 -51 106 0 3 42 -26 93 -64 50 -38 121 -85 157
-103 81 -43 244 -85 268 -71 17 10 60 89 139 259 24 50 65 132 93 184 45 85
50 101 50 158 0 75 5 76 95 20z m-1635 -237 c94 -325 177 -486 294 -572 38
-27 45 -37 41 -58 -10 -43 -370 -761 -422 -840 -27 -41 -106 -149 -174 -239
-173 -228 -176 -234 -190 -321 -15 -98 -71 -236 -126 -311 -51 -70 -61 -76
-101 -55 -17 9 -83 25 -148 36 -199 35 -304 64 -304 84 0 7 8 28 17 47 12 23
19 68 23 136 5 102 5 102 52 150 35 36 56 71 84 141 20 52 52 116 71 144 27
39 37 67 49 141 8 50 28 134 43 187 16 52 39 131 51 175 47 174 159 399 249
501 29 33 47 67 62 116 18 62 25 72 70 105 27 19 56 47 64 62 15 30 38 135 56
260 13 94 58 182 132 259 41 42 41 42 53 19 7 -12 31 -88 54 -167z m2448
-1744 c26 -13 89 -56 140 -96 51 -39 139 -96 195 -126 120 -64 139 -81 174
-151 55 -114 6 -187 -152 -229 -153 -41 -373 16 -486 126 -40 39 -43 40 -113
40 -224 0 -355 77 -329 193 6 30 13 41 24 37 7 -3 43 -5 79 -4 109 2 340 119
392 198 27 43 18 41 76 12z m-3342 -621 c251 -50 240 -43 249 -157 6 -74 3
-105 -10 -152 -20 -68 -16 -105 20 -191 28 -69 33 -160 10 -204 -21 -43 -87
-55 -280 -56 -186 0 -216 5 -278 46 -96 63 -120 206 -64 372 20 57 27 98 27
155 0 125 71 252 128 231 15 -6 104 -25 198 -44z"/>
<path d="M4678 8360 c-57 -17 -108 -58 -108 -86 0 -2 22 7 50 21 56 28 120 32
214 13 48 -9 59 -9 67 3 13 22 -14 36 -84 43 -34 4 -73 9 -87 11 -14 2 -37 0
-52 -5z m41 -20 c-31 -4 -61 -10 -68 -14 -6 -4 -11 -5 -11 -1 0 12 46 24 90
23 44 -1 44 -1 -11 -8z m136 -8 c22 -4 36 -10 30 -13 -5 -3 -32 0 -60 7 -55
13 -34 17 30 6z"/>
<path d="M5108 8309 c-43 -24 -10 -41 54 -28 43 10 68 5 141 -26 32 -13 19 24
-15 45 -36 22 -149 28 -180 9z"/>
<path d="M4718 8266 c-78 -28 -122 -75 -58 -62 29 5 43 -8 18 -17 -31 -12 68
-39 120 -34 66 7 80 18 74 56 -3 24 -13 35 -46 51 -49 23 -58 24 -108 6z m96
-14 c2 -4 -12 -6 -32 -4 -56 5 -62 10 -15 11 23 1 44 -3 47 -7z m-36 -21 c8
-4 12 -19 10 -32 -4 -32 -70 -36 -76 -5 -7 32 37 56 66 37z m61 -25 c19 -21
20 -24 6 -30 -34 -13 -45 -6 -45 24 0 36 9 38 39 6z"/>
<path d="M5112 8218 c-13 -13 -22 -17 -22 -10 0 7 -4 10 -10 7 -15 -9 -12 -59
5 -81 14 -18 15 -17 9 10 -7 29 -7 29 15 7 23 -23 111 -30 141 -11 22 14 5 23
-20 10 -27 -15 -31 -11 -22 24 7 27 7 27 34 7 41 -32 58 -28 38 10 -27 49
-129 66 -168 27z m76 -39 c4 -34 -29 -45 -60 -20 -21 18 -21 18 3 35 32 22 53
17 57 -15z"/>
<path d="M4192 8168 c-16 -21 -23 -56 -12 -63 5 -3 10 3 10 14 0 11 10 29 22
41 17 15 18 20 6 20 -9 0 -20 -6 -26 -12z"/>
<path d="M4237 8090 c-37 -30 -38 -90 -1 -127 19 -19 28 -23 37 -14 6 6 21 11
34 11 26 0 37 19 30 47 -4 16 -6 15 -12 -5 -6 -18 -10 -20 -21 -11 -17 14 -18
33 -2 59 10 15 10 25 2 38 -16 25 -37 26 -67 2z m53 -13 c0 -8 -9 -22 -20 -32
-23 -21 -28 -44 -5 -25 12 10 15 10 15 -3 0 -8 3 -22 6 -31 10 -27 -27 -32
-48 -7 -22 28 -23 59 -2 89 17 24 54 30 54 9z"/>
<path d="M4893 8048 c-29 -37 -15 -98 22 -98 22 0 18 17 -5 23 -27 7 -26 41 2
67 17 15 18 20 6 20 -9 0 -20 -6 -25 -12z"/>
<path d="M5110 8051 c0 -6 5 -13 10 -16 19 -11 11 -33 -10 -28 -11 3 -33 0
-50 -6 -25 -8 -36 -7 -56 6 -30 19 -78 4 -68 -21 8 -20 32 -28 54 -16 29 16
80 13 80 -5 0 -8 9 -15 20 -15 25 0 60 34 60 58 -1 28 -40 71 -40 43z"/>
<path d="M4943 7876 c-45 -38 -88 -123 -72 -142 31 -37 137 -69 195 -58 79 15
103 75 63 159 -26 56 -27 57 -99 61 -51 3 -63 0 -87 -20z m114 3 c28 1 35 -4
53 -40 12 -22 20 -50 18 -62 -3 -20 -6 -19 -37 16 -47 51 -92 51 -151 2 -51
-43 -58 -40 -31 13 26 52 69 85 96 76 11 -3 35 -6 52 -5z m11 -87 c21 -27 14
-32 -45 -32 -77 0 -93 11 -58 38 30 24 81 21 103 -6z m-3 -47 c58 7 74 -7 38
-35 -34 -27 -131 -24 -182 6 -54 32 -31 45 54 32 28 -5 68 -6 90 -3z"/>
<path d="M5372 6897 c-15 -17 44 -85 60 -69 12 12 0 38 -30 65 -16 14 -21 15
-30 4z"/>
</g></svg>
