<svg xmlns="http://www.w3.org/2000/svg" viewBox="0 0 1024 1024" role="img" aria-labelledby="t"><title id="t">Line drawing: keys</title><g transform="translate(0.000000,1024.000000) scale(0.100000,-0.100000)"
fill="currentColor" stroke="none">
<path d="M6690 9701 c-36 -17 -77 -31 -92 -31 -43 0 -74 -16 -123 -65 -25 -25
-49 -45 -53 -45 -4 0 -18 -18 -32 -41 -17 -28 -42 -49 -80 -69 -38 -19 -62
-39 -75 -63 -10 -20 -30 -41 -43 -48 -40 -22 -92 -104 -124 -196 -18 -53 -43
-102 -62 -123 -17 -19 -49 -71 -71 -115 -41 -82 -45 -110 -36 -240 2 -16 -3
-73 -10 -126 -14 -113 -5 -144 50 -171 19 -10 39 -24 43 -33 13 -22 62 -45 96
-45 16 0 47 -7 68 -16 26 -11 56 -15 93 -12 52 5 55 4 100 -38 46 -43 46 -43
51 -187 4 -101 9 -149 19 -161 16 -20 67 -20 101 -1 45 26 57 18 130 -80 42
-58 81 -100 98 -106 61 -24 75 -36 90 -74 8 -22 23 -51 32 -64 17 -24 17 -26
-28 -80 -114 -139 -147 -272 -172 -681 -6 -91 -15 -221 -21 -290 -6 -75 -8
-210 -4 -336 6 -211 6 -211 -52 -270 -44 -44 -63 -71 -72 -106 -13 -47 -14
-48 -83 -70 -38 -12 -86 -37 -106 -54 -24 -20 -70 -41 -132 -61 -88 -27 -98
-28 -130 -15 -44 18 -119 11 -193 -17 -63 -23 -282 -40 -529 -41 -137 0 -208
-13 -246 -44 -19 -16 -46 -25 -92 -30 -36 -3 -96 -11 -135 -16 -38 -6 -164
-13 -280 -16 -170 -4 -223 -9 -280 -26 -51 -15 -84 -18 -123 -14 -49 6 -63 2
-155 -40 -56 -25 -113 -56 -127 -69 -14 -13 -57 -44 -96 -69 -43 -27 -80 -60
-92 -81 -24 -39 15 -53 -362 125 -96 45 -271 127 -388 181 l-213 99 -492 -15
c-271 -8 -616 -17 -767 -20 -151 -3 -290 -8 -308 -11 -32 -5 -32 -5 -32 -268
l0 -263 107 -63 c527 -308 510 -296 515 -351 9 -92 68 -139 174 -139 62 0 62
0 102 -93 179 -412 462 -1071 652 -1515 l228 -534 -55 -116 c-31 -65 -152
-326 -271 -582 -517 -1119 -526 -1140 -488 -1140 8 0 43 65 84 153 427 927
563 1219 637 1377 48 102 91 197 97 212 5 16 13 28 16 28 7 -1 62 -119 62
-131 0 -4 -112 -249 -248 -545 -532 -1151 -548 -1191 -505 -1182 11 2 42 60
91 168 41 91 205 449 364 795 160 347 298 647 307 669 19 42 -39 170 560
-1236 126 -297 160 -368 175 -368 34 0 67 -85 -459 1150 -279 655 -257 599
-240 616 18 18 20 95 4 127 -16 30 -28 37 -65 37 -29 0 -33 4 -64 78 -59 142
-617 1443 -748 1744 -71 164 -124 294 -118 291 134 -81 119 -61 243 -345 63
-145 172 -396 242 -558 71 -162 253 -587 406 -945 153 -357 374 -875 492
-1150 119 -275 258 -602 311 -727 78 -184 100 -228 115 -228 16 0 18 5 14 29
-4 16 -168 408 -367 871 -198 463 -360 846 -360 852 0 8 502 1104 516 1126 1
2 62 -39 136 -92 126 -91 136 -96 184 -96 64 0 392 23 839 59 193 16 352 27
354 25 2 -2 -3 -12 -12 -22 -9 -10 -29 -44 -44 -77 -26 -56 -28 -68 -27 -185
1 -210 77 -425 226 -644 48 -71 51 -105 19 -256 -46 -222 -85 -554 -126 -1079
-30 -384 -31 -461 -10 -461 19 0 22 14 35 230 26 427 74 902 117 1151 14 85
31 187 37 227 l11 74 99 -109 c54 -59 176 -181 271 -270 228 -213 277 -286
409 -604 50 -122 141 -372 222 -609 20 -58 34 -86 47 -88 11 -2 17 3 17 16 0
31 -134 417 -217 627 -142 359 -202 458 -381 628 -449 429 -582 600 -682 882
-89 251 -77 417 40 553 20 24 29 25 645 71 570 43 627 49 645 67 16 17 19 39
22 220 4 233 4 233 -76 235 -44 1 -123 15 -104 18 4 0 59 14 123 31 119 31
354 68 599 95 138 15 138 15 200 -19 116 -65 163 -139 206 -319 40 -168 43
-222 44 -664 l1 -432 -60 -5 c-33 -3 -127 -11 -210 -16 -138 -10 -423 -40
-556 -58 -54 -8 -63 -6 -199 50 -152 62 -184 69 -178 41 2 -11 42 -33 116 -62
129 -53 133 -50 -103 -71 -219 -19 -225 -20 -225 -37 0 -20 178 -14 380 13
138 18 125 22 183 -61 10 -14 46 -39 80 -55 74 -35 119 -91 179 -220 81 -172
121 -318 208 -755 75 -379 98 -471 157 -648 37 -110 49 -137 64 -137 26 0 25
9 -21 145 -56 164 -99 343 -160 655 -127 657 -235 923 -404 1000 -42 19 -67
37 -79 59 -11 18 -17 34 -15 36 7 8 420 55 563 65 83 5 180 12 217 15 68 5 68
5 87 -34 27 -52 71 -87 166 -132 219 -103 593 -198 940 -241 146 -17 623 -17
683 0 35 11 49 23 77 66 31 49 37 53 92 65 101 22 159 54 183 100 69 136 56
454 -65 1551 -69 628 -85 754 -138 1055 -40 233 -42 247 -42 460 0 128 10 364
24 564 31 467 27 826 -11 972 -66 246 -281 547 -516 722 -93 69 -279 185 -455
283 -59 32 -107 64 -107 71 0 7 -61 74 -135 149 -146 148 -152 152 -297 171
-32 4 -37 8 -33 27 12 59 14 184 4 216 -6 19 -10 90 -10 157 2 144 -15 236
-58 321 -22 44 -31 76 -31 111 0 51 -26 95 -111 186 -15 17 -32 49 -39 73 -8
33 -29 62 -83 117 -78 78 -134 105 -222 105 -32 0 -47 6 -66 26 -76 81 -206
114 -294 75 -59 -26 -59 -26 -95 0 -50 38 -159 37 -240 0z m217 -39 c39 -27
82 -28 133 -2 61 31 129 21 205 -31 27 -19 33 -29 29 -46 -6 -22 -4 -23 63
-23 115 0 159 -19 240 -102 47 -49 73 -84 78 -107 4 -20 37 -71 76 -120 64
-79 69 -88 69 -133 0 -33 9 -66 26 -100 50 -98 56 -127 66 -318 15 -286 11
-360 -18 -360 -8 0 -17 -7 -20 -15 -8 -21 -21 -19 -29 4 -3 10 -19 21 -35 24
-29 6 -60 48 -60 81 0 8 -14 32 -32 52 -20 23 -42 67 -59 120 -54 167 -93 209
-191 202 -72 -5 -108 -36 -129 -110 -7 -24 -28 -60 -48 -81 -35 -37 -36 -39
-37 -128 -2 -79 -5 -94 -25 -115 -22 -24 -22 -24 -37 -1 -8 12 -20 27 -27 32
-6 6 -24 29 -38 52 -39 61 -46 63 -228 60 -155 -2 -167 -1 -213 22 -27 13 -56
37 -65 53 -20 36 -43 32 -52 -9 -9 -45 -35 -82 -71 -101 -16 -10 -48 -30 -70
-47 -83 -61 -85 -62 -55 -27 15 19 27 39 27 45 0 7 16 36 36 66 33 48 35 57
29 98 -9 61 -14 73 -32 73 -13 0 -15 -10 -11 -52 5 -47 2 -57 -28 -101 -19
-27 -34 -54 -34 -61 0 -6 -14 -29 -30 -50 -17 -22 -30 -47 -30 -56 0 -49 -101
-70 -108 -22 -3 20 -8 22 -36 16 -28 -5 -37 -1 -59 25 -30 37 -47 40 -47 9 -1
-21 -2 -22 -14 -6 -7 10 -24 22 -39 27 -50 19 -61 50 -47 138 14 88 16 137 5
203 -6 40 -2 55 38 135 24 50 56 102 71 116 14 15 37 59 51 98 33 99 73 167
119 207 21 18 47 47 57 63 10 17 41 42 68 56 27 13 58 37 68 51 10 15 32 40
48 56 98 97 99 98 160 109 32 6 80 22 105 35 58 31 140 29 187 -4z m597 -965
c27 -27 66 -125 66 -166 0 -15 -16 -63 -36 -105 -30 -65 -39 -77 -57 -74 -21
3 -26 14 -42 91 -4 19 -12 27 -26 27 -19 0 -20 -4 -14 -42 13 -79 35 -113 78
-116 22 -2 45 2 54 10 18 14 71 126 83 173 6 22 8 7 9 -52 1 -64 4 -83 15 -83
15 0 26 21 26 52 0 30 27 5 35 -32 8 -36 42 -80 61 -80 8 0 24 -11 36 -25 22
-26 71 -34 83 -15 11 17 21 11 40 -24 19 -35 19 -35 -13 -98 -64 -125 -334
-477 -465 -606 l-64 -63 -53 86 -53 87 56 56 c61 62 107 148 107 200 0 45 -25
42 -40 -5 -35 -107 -134 -215 -283 -306 -130 -79 -177 -70 -237 47 -33 64 -38
70 -81 82 -40 12 -52 23 -105 96 -32 46 -67 91 -76 100 -23 23 -77 23 -123 1
-19 -9 -38 -13 -42 -9 -5 4 -11 71 -14 149 -3 78 -8 149 -12 157 -10 25 48 62
112 72 31 5 82 17 114 28 31 11 75 20 96 20 49 0 71 8 71 26 0 21 -106 18
-182 -6 -34 -11 -87 -23 -117 -26 -56 -7 -111 -42 -111 -71 0 -12 -7 -10 -32
10 -40 30 -41 42 -7 65 14 9 58 38 96 64 67 45 123 99 123 118 0 5 16 -1 36
-15 52 -36 133 -49 244 -40 156 12 160 12 187 -21 13 -16 42 -51 63 -77 22
-27 40 -55 40 -63 0 -24 43 -15 79 18 39 35 55 95 46 169 -6 42 -4 49 25 77
17 17 37 46 45 64 14 32 14 32 15 6 0 -53 8 -59 61 -52 47 6 49 5 66 -25 23
-39 43 -40 43 -1 0 44 -31 70 -84 70 -52 0 -60 8 -46 46 21 55 66 69 104 31z
m519 -506 c40 -55 49 -32 -128 -336 -94 -162 -259 -493 -320 -642 -44 -109
-68 -137 -90 -107 -25 34 -135 240 -135 254 0 7 46 61 103 119 122 125 287
329 398 494 93 137 118 188 119 240 0 45 7 43 53 -22z m85 15 c15 -8 58 -50
95 -94 38 -44 88 -94 113 -113 44 -33 44 -33 10 -68 -68 -73 -165 -241 -225
-393 -21 -53 -27 -59 -65 -68 -85 -22 -138 -43 -142 -55 -3 -7 16 -45 41 -83
l47 -71 -158 -233 c-272 -401 -301 -446 -356 -551 -151 -292 -253 -564 -343
-922 -99 -391 -107 -396 -31 -19 112 553 165 741 348 1219 201 524 305 750
518 1120 97 167 134 242 138 273 4 33 1 42 -11 42 -8 0 -17 7 -21 15 -7 19 7
19 42 1z m522 -434 c337 -197 478 -319 637 -549 211 -306 235 -492 178 -1378
-31 -467 -29 -673 5 -860 65 -356 80 -464 159 -1195 91 -832 95 -880 96 -1145
0 -263 -7 -308 -54 -355 -27 -27 -135 -69 -147 -58 -3 3 4 24 15 47 12 22 21
50 21 61 0 46 -32 11 -93 -99 -87 -159 -72 -152 -318 -158 -396 -11 -769 45
-1169 176 -210 68 -317 129 -358 205 -15 28 -17 77 -18 471 0 452 -5 524 -44
692 -39 167 -85 248 -173 309 -52 36 -52 36 71 30 532 -26 915 -204 1312 -613
155 -158 263 -300 394 -516 19 -30 46 -36 46 -9 0 41 -155 274 -288 432 -252
301 -555 522 -887 645 -163 61 -445 105 -666 105 -105 0 -105 0 -149 45 -27
27 -53 45 -67 45 -34 0 -28 -23 17 -64 49 -44 49 -46 5 -46 -129 0 -607 -77
-765 -123 -84 -25 -84 -25 -205 38 -66 35 -289 145 -495 245 -206 100 -376
183 -378 185 -5 5 40 89 52 97 41 27 145 49 244 51 83 1 114 6 135 20 14 9 29
17 31 17 3 0 7 -39 8 -87 3 -88 3 -88 31 -91 16 -2 48 3 73 12 52 17 51 18 89
-93 22 -66 22 -66 96 -73 340 -30 704 -34 1389 -13 715 22 862 31 914 54 85
37 352 415 282 399 -8 -2 -69 -77 -137 -168 -68 -91 -139 -175 -157 -186 -41
-28 -80 -32 -432 -44 -1077 -38 -1447 -39 -1815 -5 -60 6 -60 6 -56 156 5 221
-27 489 -69 587 -19 42 -19 42 23 42 61 0 293 -19 432 -36 152 -18 255 -18
375 1 52 8 138 17 190 21 52 3 112 12 132 21 47 20 88 0 81 -39 -6 -32 50
-118 77 -118 28 0 25 23 -11 73 -27 37 -29 42 -12 46 10 2 26 12 36 22 15 16
33 19 110 19 84 0 97 3 151 31 73 38 99 36 194 -20 164 -96 363 -368 412 -564
10 -36 17 -47 32 -47 18 0 20 4 14 43 -10 61 -68 197 -120 280 -53 86 -212
262 -267 297 -36 23 -39 28 -35 59 3 22 17 45 37 63 29 27 30 32 24 77 -6 43
-2 60 39 154 85 194 97 233 103 340 5 84 10 103 29 127 34 40 44 73 44 144 0
35 7 83 15 106 8 23 15 76 15 117 0 85 32 179 101 295 45 76 48 91 17 86 -26
-4 -73 -78 -119 -188 -26 -60 -33 -95 -38 -175 -4 -55 -11 -107 -16 -115 -6
-8 -12 -55 -15 -105 -5 -80 -9 -95 -36 -132 -28 -38 -32 -51 -37 -140 -5 -105
-16 -140 -102 -337 -42 -98 -47 -115 -42 -162 5 -46 3 -54 -13 -59 -19 -6 -50
-61 -50 -89 0 -13 -4 -13 -35 0 -54 22 -113 17 -175 -16 -50 -27 -64 -30 -149
-30 -73 0 -99 -4 -112 -16 -17 -15 -20 -14 -48 5 -34 24 -85 27 -121 6 -14 -8
-39 -14 -57 -15 -37 0 -41 -31 37 250 26 96 60 227 75 290 89 378 274 807 478
1111 57 85 163 242 235 349 86 127 132 204 132 221 0 15 -16 50 -36 79 -42 61
-42 60 57 86 68 18 68 18 105 103 54 129 119 248 176 323 59 77 21 87 308 -80z
m-1344 -249 c56 -87 56 -87 30 -110 -51 -44 -66 -21 -66 98 0 44 -4 59 -14 59
-18 0 -26 -22 -26 -69 0 -20 -18 -97 -40 -171 -127 -419 -179 -730 -187 -1102
-6 -257 0 -355 38 -608 19 -135 19 -136 0 -232 -11 -54 -23 -128 -27 -165 -10
-105 -16 -104 -72 14 -86 182 -169 417 -219 622 -24 100 -26 122 -27 371 -1
146 5 321 11 390 7 69 17 202 23 295 16 264 64 422 163 531 43 47 46 48 103
50 62 1 141 34 213 88 19 14 36 26 38 26 2 0 28 -39 59 -87z m-64 -205 c-8
-17 -21 -81 -29 -142 -7 -61 -20 -123 -28 -137 -8 -14 -21 -59 -30 -100 -9
-41 -33 -155 -55 -254 -40 -186 -51 -205 -25 -40 25 154 63 330 105 490 59
221 63 236 71 224 3 -6 0 -25 -9 -41z m169 -144 c6 -8 -4 -29 -32 -64 -41 -51
-42 -52 -86 -47 -24 2 -46 7 -48 9 -9 9 18 184 33 213 36 73 41 72 84 -18 22
-45 44 -87 49 -93z m59 -99 c12 -19 28 -38 35 -43 12 -6 1 -42 -55 -182 l-69
-175 -1 178 c0 179 0 179 28 218 33 47 35 47 62 4z m-154 -55 c24 0 24 0 23
-162 -2 -274 -10 -331 -73 -528 -31 -96 -74 -247 -96 -334 -23 -88 -42 -161
-43 -163 -8 -7 -39 224 -44 327 -8 151 7 272 69 565 59 284 69 309 111 301 16
-3 40 -6 53 -6z m-235 -1180 c22 -120 24 -155 11 -205 -12 -43 -43 193 -47
360 -4 126 -4 128 6 45 5 -47 19 -137 30 -200z m-401 26 c0 -28 71 -269 115
-391 26 -72 80 -200 121 -285 l74 -155 -123 -17 c-154 -21 -235 -22 -395 -4
-343 39 -652 43 -727 11 -16 -8 -46 -17 -65 -21 -19 -3 -59 -17 -89 -30 -29
-13 -83 -29 -120 -34 -36 -5 -80 -12 -98 -15 -32 -6 -32 -6 -17 37 8 24 22 88
30 143 29 190 -12 351 -96 377 -8 3 86 8 210 12 268 8 373 20 436 46 66 29 89
25 193 -25 51 -25 97 -45 102 -45 23 0 6 38 -26 56 -36 21 -36 21 67 52 129
40 132 40 214 -3 78 -41 84 -42 84 -15 0 22 -67 65 -132 84 -41 12 -41 12 18
30 82 25 102 40 110 81 11 61 114 161 114 111z m-3748 -460 c101 -47 311 -145
468 -219 285 -134 285 -134 282 -170 -3 -27 1 -38 17 -46 29 -16 83 -13 108 4
31 22 99 -12 109 -53 4 -15 15 -44 26 -64 18 -38 18 -38 -4 -38 -13 1 -39 14
-58 30 -19 17 -45 30 -58 30 -13 0 -37 11 -54 25 -16 14 -42 28 -56 31 -15 4
-36 14 -47 24 -26 23 -60 40 -79 40 -8 0 -32 11 -52 25 -20 14 -43 25 -50 25
-7 0 -30 11 -50 25 -20 14 -43 25 -50 25 -7 0 -30 11 -50 25 -20 14 -45 25
-55 25 -10 0 -40 14 -66 30 -26 17 -55 30 -65 30 -9 0 -34 11 -54 25 -20 14
-45 25 -55 25 -10 0 -35 11 -55 25 -20 14 -46 25 -56 25 -11 0 -31 9 -45 20
-14 11 -33 20 -42 20 -9 0 -33 11 -54 25 -37 26 -37 26 -305 14 -267 -12 -267
-12 -357 34 -90 46 -90 46 -20 48 39 1 153 5 255 8 413 16 364 22 572 -73z
m-793 -42 c113 -59 332 -172 486 -252 154 -80 762 -388 1350 -683 922 -464
1063 -538 1020 -534 -49 5 -236 14 -740 36 l-249 11 -276 158 c-514 294 -1262
708 -1970 1089 -485 261 -485 261 -400 262 91 2 483 14 539 17 26 2 83 -23
240 -104z m3147 71 c54 -37 81 -164 64 -293 -10 -79 -45 -210 -58 -224 -4 -3
-37 -9 -74 -13 -68 -7 -68 -7 -43 46 62 136 75 315 30 424 -14 33 -25 61 -25
62 0 2 42 10 65 12 11 0 30 -6 41 -14z m-3321 -408 c657 -355 1616 -889 1939
-1080 69 -41 69 -41 62 -115 -3 -41 -6 -200 -6 -353 l0 -279 -122 88 c-129 93
-1011 687 -1303 878 -426 279 -753 482 -1192 739 l-133 78 0 224 0 225 138
-73 c75 -40 353 -189 617 -332z m3157 382 c43 -23 83 -148 71 -224 -5 -33 -12
-39 -67 -64 -34 -16 -87 -51 -118 -77 -97 -84 -152 -111 -248 -124 -128 -16
-230 -40 -280 -65 -105 -53 -200 -66 -214 -29 -15 38 6 56 138 119 140 67 196
113 196 159 0 31 -20 36 -160 36 -97 0 -126 -4 -185 -25 -78 -27 -106 -30
-122 -14 -17 17 -43 3 -43 -21 0 -11 -12 -39 -27 -63 -22 -33 -27 -53 -25 -92
4 -102 -23 -113 -64 -29 -28 56 -28 56 10 170 42 128 50 139 109 154 138 34
287 94 287 115 0 23 -30 18 -126 -19 -49 -19 -118 -42 -154 -51 -36 -9 -76
-24 -90 -33 -14 -9 -30 -19 -35 -22 -6 -3 -38 -25 -73 -50 -49 -35 -64 -52
-72 -82 -15 -52 -78 -97 -103 -72 -3 3 9 33 27 66 27 48 45 67 92 95 33 19 73
47 89 63 17 15 74 48 127 73 88 41 103 45 151 40 37 -4 75 1 128 16 59 16 103
21 205 21 131 0 410 23 474 39 36 9 72 5 102 -10z m-2398 -55 c-24 -10 -410
-31 -419 -23 -5 5 7 10 30 10 22 1 92 5 155 9 139 8 249 10 234 4z m106 -44
c11 -7 5 -10 -25 -11 -22 0 -120 -6 -218 -12 -98 -7 -184 -9 -190 -5 -7 5 1 8
18 9 33 1 374 25 390 27 6 1 17 -3 25 -8z m107 -48 c12 -7 -306 -32 -406 -32
-93 0 -26 12 141 24 216 17 250 18 265 8z m113 -52 c11 -7 6 -10 -20 -10 -19
-1 -123 -7 -230 -14 -107 -7 -202 -10 -210 -6 -16 9 36 16 225 28 186 13 218
13 235 2z m109 -49 c21 -14 -22 -19 -252 -31 -130 -7 -204 -7 -215 0 -14 7
-10 10 18 11 19 0 112 7 205 13 225 17 228 17 244 7z m796 -42 c-6 -17 -85
-61 -85 -48 0 10 81 71 87 66 2 -3 1 -10 -2 -18z m-680 -18 c-14 -12 -438 -35
-472 -25 -20 6 20 11 137 19 212 15 347 17 335 6z m1274 -7 c12 -10 -74 -66
-182 -119 -98 -48 -125 -66 -137 -91 -15 -31 -15 -31 -82 0 -37 17 -68 38 -70
46 -2 8 10 38 27 66 29 49 32 52 81 58 28 3 80 17 115 30 57 22 74 24 154 19
50 -3 92 -7 94 -9z m617 -48 c-7 -23 -26 -67 -42 -97 -38 -70 -59 -71 -85 -6
-19 48 -19 48 12 75 41 35 101 72 116 72 9 0 9 -10 -1 -44z m-1776 4 c11 -7 3
-10 -30 -10 -25 0 -135 -7 -244 -15 -124 -9 -205 -11 -215 -5 -20 12 -37 9
174 24 231 17 296 18 315 6z m533 -30 c-6 -22 -11 -24 -32 -11 -11 7 -10 11 5
20 27 15 33 14 27 -9z m-434 -19 c26 -17 -457 -49 -486 -32 -15 9 -13 11 17
11 19 1 112 7 205 14 216 17 247 18 264 7z m2467 -25 c33 -46 69 -228 81 -413
6 -103 6 -103 -68 -137 -140 -63 -128 -81 -126 186 2 249 -6 314 -46 364 -20
26 -20 26 62 23 67 -4 85 -8 97 -23z m-190 -34 c23 -31 36 -104 41 -233 6
-126 6 -126 -43 -155 -45 -27 -57 -29 -154 -30 -80 -1 -122 -7 -175 -24 -88
-29 -88 -29 -137 -118 -48 -87 -86 -135 -100 -126 -31 19 30 223 97 321 36 54
45 93 21 93 -8 0 -28 -23 -46 -50 -37 -58 -55 -70 -102 -70 -41 0 -214 -87
-276 -139 -109 -91 -138 -111 -164 -111 -15 0 -29 3 -31 8 -11 17 150 197 204
229 80 47 99 62 99 78 0 23 -23 18 -92 -21 -76 -43 -110 -74 -196 -181 -62
-79 -93 -100 -105 -70 -10 25 33 99 105 184 66 78 79 88 165 128 107 50 153
80 153 101 0 23 -17 17 -154 -52 -128 -64 -133 -67 -196 -146 -76 -95 -138
-158 -156 -158 -22 0 -23 27 -3 66 10 21 19 44 19 50 0 13 109 162 132 182 8
6 57 22 110 36 53 14 128 41 166 60 90 45 114 51 379 85 181 24 234 35 295 60
78 33 121 34 144 3z m-2170 8 c15 -6 25 -12 23 -14 -8 -8 -470 -37 -490 -31
-41 13 -3 20 199 36 114 9 215 17 224 17 9 1 29 -3 44 -8z m1406 -33 c16 -43
16 -43 -71 -84 -47 -23 -128 -51 -180 -63 -78 -19 -99 -29 -128 -58 -35 -34
-35 -34 -126 8 -101 48 -121 60 -93 60 10 0 53 16 96 35 52 24 111 40 181 51
186 29 207 35 251 64 54 37 51 38 70 -13z m-1284 -30 c19 -11 -14 -15 -218
-30 -132 -9 -247 -14 -255 -11 -30 12 -14 24 33 25 26 0 119 6 207 13 209 17
206 17 233 3z m531 -108 c13 -11 32 -19 42 -19 21 0 269 -116 269 -125 0 -4
-14 -25 -31 -46 -33 -42 -84 -54 -95 -24 -9 23 -68 55 -103 55 -17 0 -31 4
-31 10 0 16 -73 60 -101 60 -14 0 -34 9 -45 21 -23 26 -67 49 -92 49 -10 0
-27 9 -36 19 -17 19 -17 20 6 23 14 2 29 15 38 34 15 32 15 32 85 -4 39 -19
81 -43 94 -53z m-412 46 c6 -18 -456 -46 -487 -29 -24 13 -24 13 20 15 25 0
115 7 200 14 178 15 262 14 267 0z m123 -55 c8 -5 13 -10 10 -10 -119 -16
-489 -36 -505 -27 -26 15 -29 14 192 31 213 17 284 18 303 6z m126 -64 c18
-14 18 -15 -6 -20 -14 -3 -117 -10 -230 -16 -113 -6 -210 -13 -215 -15 -6 -1
-26 6 -45 16 -33 17 -34 18 -10 20 14 0 97 7 185 13 228 18 297 19 321 2z
m137 -70 c17 -13 16 -14 -5 -19 -13 -3 -122 -11 -243 -18 -199 -11 -223 -11
-250 4 -25 13 -27 16 -10 18 11 0 90 7 175 14 215 17 311 17 333 1z m141 -71
c28 -21 20 -22 -241 -35 -204 -10 -235 -10 -260 4 -16 9 -22 16 -13 17 328 29
489 33 514 14z m-2399 -87 c62 -39 60 -42 -15 -38 -47 3 -86 27 -105 66 -31
67 -29 66 120 -28z m2513 15 c-4 -23 -44 -28 -266 -38 -167 -7 -232 0 -232 25
0 7 265 24 438 28 55 2 63 0 60 -15z m722 10 c0 -4 -7 -26 -16 -50 -16 -42
-16 -42 -67 -16 -51 25 -51 25 -11 49 37 22 94 33 94 17z m-48 -190 c-3 -40
-7 -52 -15 -44 -6 6 -28 11 -49 11 -21 0 -38 4 -38 9 0 25 -71 53 -126 49 -55
-3 -55 -3 -27 20 15 13 48 37 72 52 43 29 43 29 115 -7 71 -35 71 -35 68 -90z
m-692 98 c0 -27 -271 -42 -316 -17 -36 19 -42 17 101 26 218 12 215 12 215 -9z
m1580 -68 c-1 -68 -1 -68 -23 -13 -23 55 -23 55 -2 67 11 7 21 12 23 13 1 0 2
-30 2 -67z m-1477 -2 c4 -18 -4 -19 -123 -26 -104 -6 -132 -4 -156 8 -29 15
-29 15 -4 21 14 3 70 7 125 9 55 2 112 4 126 5 19 1 28 -4 32 -17z m422 -54
c16 -12 7 -15 -66 -20 -117 -9 -161 -8 -133 3 12 5 25 13 29 19 9 16 147 14
170 -2z m993 -319 c155 -77 280 -143 277 -146 -2 -3 -100 1 -216 8 -210 13
-210 13 -226 52 -18 45 -38 58 -87 58 -20 0 -36 4 -36 9 0 23 -51 61 -83 61
-25 0 -41 8 -60 30 -22 24 -35 30 -67 30 -22 0 -40 4 -40 9 0 24 -51 61 -86
61 -27 0 -41 6 -57 26 -11 15 -34 32 -51 40 -19 8 -24 13 -13 14 9 0 29 17 44
38 28 38 28 38 223 -56 107 -51 322 -157 478 -234z m-1312 303 c5 -5 27 -11
49 -13 22 -2 -27 -7 -108 -12 -112 -6 -155 -5 -178 4 -22 10 -27 15 -17 21 18
12 242 11 254 0z m-1853 -344 c467 -310 467 -310 467 -361 0 -94 53 -148 155
-156 61 -5 61 -5 -154 -467 -118 -255 -217 -463 -220 -463 -3 0 -35 69 -70
153 -92 216 -556 1293 -635 1472 -36 82 -66 154 -66 159 0 10 -43 38 523 -337z
m2303 296 c17 -17 15 -18 -27 -24 -24 -3 -145 -12 -269 -19 -200 -11 -229 -11
-255 2 -29 16 -29 16 1 21 16 3 119 11 229 18 110 6 202 13 204 15 14 12 101
2 117 -13z m135 -73 c23 -18 23 -19 4 -20 -11 0 -133 -7 -270 -16 -225 -15
-254 -15 -280 -2 -29 16 -29 16 11 22 21 3 134 11 249 17 116 6 212 13 214 15
12 11 51 2 72 -16z m129 -65 c7 -8 11 -16 9 -16 -2 -1 -116 -12 -254 -23 -223
-20 -253 -20 -282 -7 -46 21 -32 31 45 32 37 0 135 7 217 14 213 18 250 18
265 0z m134 -74 c8 -13 -27 -18 -271 -37 -203 -16 -225 -17 -255 -2 -33 15
-33 15 17 22 28 3 138 13 245 21 107 9 202 17 210 19 17 3 46 -9 54 -23z m121
-61 c22 -24 22 -25 -189 -45 -196 -18 -293 -19 -326 -1 -25 14 -25 14 10 19
36 6 413 43 461 45 15 1 34 -7 44 -18z m-1125 -70 c560 -26 778 -37 1030 -55
113 -8 351 -24 530 -35 179 -11 357 -24 395 -28 80 -8 71 23 67 -247 -2 -130
-3 -136 -24 -145 -13 -5 -183 -21 -378 -35 -195 -14 -701 -52 -1125 -85 -423
-32 -824 -62 -890 -66 l-120 -7 3 319 c1 176 5 338 8 362 6 51 -58 48 504 22z
m1254 -2 c9 -12 14 -23 12 -25 -2 -2 -58 -1 -125 3 -67 4 -119 10 -115 13 5 5
137 26 191 29 12 1 28 -7 37 -20z m-2341 -360 c92 -62 92 -62 54 -70 -74 -15
-157 44 -157 112 0 28 -1 28 103 -42z m188 -129 c48 -30 48 -30 20 -92 -16
-34 -105 -226 -198 -427 -93 -201 -194 -418 -223 -482 -29 -65 -56 -118 -59
-118 -3 0 -19 32 -35 70 -29 71 -29 71 13 163 136 298 426 917 430 917 2 0 26
-14 52 -31z m-571 -1159 c6 -12 10 -33 8 -48 -3 -27 -3 -27 -21 5 -19 35 -22
63 -7 63 5 0 14 -9 20 -20z"/>
<path d="M6710 8250 c-42 -35 -71 -37 -109 -9 -35 25 -65 22 -69 -9 -3 -16 2
-22 15 -22 11 0 28 -7 39 -15 52 -39 184 8 184 67 0 26 -20 22 -60 -12z"/>
<path d="M4375 3110 c-25 -40 -41 -232 -55 -630 -12 -334 -21 -421 -94 -875
-31 -187 -76 -466 -101 -620 -60 -376 -64 -408 -39 -403 16 3 21 19 32 88 15
98 111 692 148 918 72 446 81 534 104 1097 6 138 17 284 25 325 8 41 15 83 15
93 0 18 -25 24 -35 7z"/>
</g></svg>
